<svg width="48" height="48" viewBox="0 0 48 48" fill="none" xmlns="http://www.w3.org/2000/svg">
<path d="M28 22.52V12H34V20H38V8H28V6H10V38H6V42H25.5C23.5 40 22 36.98 22 34C22 29.24 24.38 25.06 28 22.52ZM20 22H24V26H20V22Z" fill="#FEDC00"/>
<path fill-rule="evenodd" clip-rule="evenodd" d="M34 41C38.4183 41 42 37.4183 42 33C42 28.5817 38.4183 25 34 25C29.5817 25 26 28.5817 26 33C26 37.4183 29.5817 41 34 41ZM34 43C39.5228 43 44 38.5228 44 33C44 27.4772 39.5228 23 34 23C28.4772 23 24 27.4772 24 33C24 38.5228 28.4772 43 34 43Z" fill="#FEDC00"/>
<path d="M32 28C32 27.4477 32.4477 27 33 27C33.5523 27 34 27.4477 34 28V34C34 34.5523 33.5523 35 33 35C32.4477 35 32 34.5523 32 34V28Z" fill="#FEDC00"/>
<path d="M33 35C32.4477 35 32 34.5523 32 34C32 33.4477 32.4477 33 33 33H37C37.5523 33 38 33.4477 38 34C38 34.5523 37.5523 35 37 35H33Z" fill="#FEDC00"/>
</svg>
