<svg width="48" height="48" viewBox="0 0 48 48" fill="none" xmlns="http://www.w3.org/2000/svg">
<path d="M43.3402 36.34L32.7402 25.74H30.7602L25.6802 30.82V32.8L36.2802 43.4C37.0602 44.18 38.3202 44.18 39.1002 43.4L43.3402 39.16C44.1202 38.4 44.1202 37.12 43.3402 36.34Z" fill="#FEDC00"/>
<path d="M34.68 20.38L37.5 17.56L41.74 21.8C44.08 19.46 44.08 15.66 41.74 13.32L34.66 6.24L31.84 9.06V3.42L30.44 2L23.36 9.08L24.78 10.5H30.44L27.62 13.32L29.74 15.44L23.96 21.22L15.7 12.96V10.12L9.66 4.08L4 9.74L10.06 15.8H12.88L21.14 24.06L19.44 25.76H15.2L4.6 36.36C3.82 37.14 3.82 38.4 4.6 39.18L8.84 43.42C9.62 44.2 10.88 44.2 11.66 43.42L22.26 32.82V28.58L32.56 18.28L34.68 20.38Z" fill="#FEDC00"/>
</svg>
