<svg width="1017" height="297" viewBox="0 0 1017 297" fill="none" xmlns="http://www.w3.org/2000/svg">
<rect width="953" height="60" transform="translate(64 29)" fill="#228749" fill-opacity="0.1"/>
<path d="M701.56 65.18C700.288 65.18 699.136 64.904 698.104 64.352C697.084 63.788 696.28 63.014 695.692 62.03C695.116 61.046 694.828 59.936 694.828 58.7C694.828 57.464 695.122 56.354 695.71 55.37C696.298 54.386 697.102 53.618 698.122 53.066C699.154 52.502 700.306 52.22 701.578 52.22C702.61 52.22 703.552 52.4 704.404 52.76C705.256 53.12 705.976 53.642 706.564 54.326L705.052 55.748C704.14 54.764 703.018 54.272 701.686 54.272C700.822 54.272 700.048 54.464 699.364 54.848C698.68 55.22 698.146 55.742 697.762 56.414C697.378 57.086 697.186 57.848 697.186 58.7C697.186 59.552 697.378 60.314 697.762 60.986C698.146 61.658 698.68 62.186 699.364 62.57C700.048 62.942 700.822 63.128 701.686 63.128C703.018 63.128 704.14 62.63 705.052 61.634L706.564 63.074C705.976 63.758 705.25 64.28 704.386 64.64C703.534 65 702.592 65.18 701.56 65.18ZM712.417 65.126C711.445 65.126 710.569 64.916 709.789 64.496C709.009 64.076 708.397 63.494 707.953 62.75C707.521 61.994 707.305 61.142 707.305 60.194C707.305 59.246 707.521 58.4 707.953 57.656C708.397 56.912 709.009 56.33 709.789 55.91C710.569 55.49 711.445 55.28 712.417 55.28C713.401 55.28 714.283 55.49 715.063 55.91C715.843 56.33 716.449 56.912 716.881 57.656C717.325 58.4 717.547 59.246 717.547 60.194C717.547 61.142 717.325 61.994 716.881 62.75C716.449 63.494 715.843 64.076 715.063 64.496C714.283 64.916 713.401 65.126 712.417 65.126ZM712.417 63.2C713.245 63.2 713.929 62.924 714.469 62.372C715.009 61.82 715.279 61.094 715.279 60.194C715.279 59.294 715.009 58.568 714.469 58.016C713.929 57.464 713.245 57.188 712.417 57.188C711.589 57.188 710.905 57.464 710.365 58.016C709.837 58.568 709.573 59.294 709.573 60.194C709.573 61.094 709.837 61.82 710.365 62.372C710.905 62.924 711.589 63.2 712.417 63.2ZM725.371 59.996C725.971 60.164 726.433 60.44 726.757 60.824C727.093 61.196 727.261 61.646 727.261 62.174C727.261 62.762 727.063 63.284 726.667 63.74C726.271 64.184 725.725 64.532 725.029 64.784C724.333 65.036 723.541 65.162 722.653 65.162C721.909 65.162 721.183 65.078 720.475 64.91C719.767 64.73 719.125 64.478 718.549 64.154L719.197 62.48C719.665 62.744 720.193 62.948 720.781 63.092C721.369 63.236 721.957 63.308 722.545 63.308C723.301 63.308 723.889 63.194 724.309 62.966C724.741 62.726 724.957 62.402 724.957 61.994C724.957 61.622 724.789 61.334 724.453 61.13C724.129 60.926 723.667 60.824 723.067 60.824H721.195V59.312H722.887C723.451 59.312 723.889 59.216 724.201 59.024C724.525 58.832 724.687 58.562 724.687 58.214C724.687 57.866 724.495 57.59 724.111 57.386C723.727 57.182 723.199 57.08 722.527 57.08C721.567 57.08 720.553 57.314 719.485 57.782L718.909 56.126C720.169 55.538 721.441 55.244 722.725 55.244C723.541 55.244 724.273 55.358 724.921 55.586C725.569 55.802 726.073 56.114 726.433 56.522C726.805 56.918 726.991 57.374 726.991 57.89C726.991 58.358 726.847 58.778 726.559 59.15C726.271 59.51 725.875 59.792 725.371 59.996ZM739.856 63.092V67.142H737.75V65H730.334V67.142H728.246V63.092H728.696C729.308 63.068 729.722 62.678 729.938 61.922C730.166 61.154 730.316 60.074 730.388 58.682L730.514 55.388H738.434V63.092H739.856ZM732.44 58.844C732.392 59.948 732.302 60.848 732.17 61.544C732.038 62.24 731.798 62.756 731.45 63.092H736.184V57.296H732.494L732.44 58.844ZM745.448 55.28C746.864 55.28 747.944 55.622 748.688 56.306C749.444 56.978 749.822 57.998 749.822 59.366V65H747.698V63.83C747.422 64.25 747.026 64.574 746.51 64.802C746.006 65.018 745.394 65.126 744.674 65.126C743.954 65.126 743.324 65.006 742.784 64.766C742.244 64.514 741.824 64.172 741.524 63.74C741.236 63.296 741.092 62.798 741.092 62.246C741.092 61.382 741.41 60.692 742.046 60.176C742.694 59.648 743.708 59.384 745.088 59.384H747.572V59.24C747.572 58.568 747.368 58.052 746.96 57.692C746.564 57.332 745.97 57.152 745.178 57.152C744.638 57.152 744.104 57.236 743.576 57.404C743.06 57.572 742.622 57.806 742.262 58.106L741.38 56.468C741.884 56.084 742.49 55.79 743.198 55.586C743.906 55.382 744.656 55.28 745.448 55.28ZM745.142 63.488C745.706 63.488 746.204 63.362 746.636 63.11C747.08 62.846 747.392 62.474 747.572 61.994V60.878H745.25C743.954 60.878 743.306 61.304 743.306 62.156C743.306 62.564 743.468 62.888 743.792 63.128C744.116 63.368 744.566 63.488 745.142 63.488ZM752.606 55.388H754.856V59.294H759.698V55.388H761.948V65H759.698V61.202H754.856V65H752.606V55.388ZM764.963 55.388H767.213V61.724L772.523 55.388H774.575V65H772.325V58.664L767.033 65H764.963V55.388ZM786.602 60.248C786.602 60.404 786.59 60.626 786.566 60.914H779.024C779.156 61.622 779.498 62.186 780.05 62.606C780.614 63.014 781.31 63.218 782.138 63.218C783.194 63.218 784.064 62.87 784.748 62.174L785.954 63.56C785.522 64.076 784.976 64.466 784.316 64.73C783.656 64.994 782.912 65.126 782.084 65.126C781.028 65.126 780.098 64.916 779.294 64.496C778.49 64.076 777.866 63.494 777.422 62.75C776.99 61.994 776.774 61.142 776.774 60.194C776.774 59.258 776.984 58.418 777.404 57.674C777.836 56.918 778.43 56.33 779.186 55.91C779.942 55.49 780.794 55.28 781.742 55.28C782.678 55.28 783.512 55.49 784.244 55.91C784.988 56.318 785.564 56.9 785.972 57.656C786.392 58.4 786.602 59.264 786.602 60.248ZM781.742 57.08C781.022 57.08 780.41 57.296 779.906 57.728C779.414 58.148 779.114 58.712 779.006 59.42H784.46C784.364 58.724 784.07 58.16 783.578 57.728C783.086 57.296 782.474 57.08 781.742 57.08ZM798.321 65.126C797.349 65.126 796.473 64.916 795.693 64.496C794.913 64.076 794.301 63.494 793.857 62.75C793.425 61.994 793.209 61.142 793.209 60.194C793.209 59.246 793.425 58.4 793.857 57.656C794.301 56.912 794.913 56.33 795.693 55.91C796.473 55.49 797.349 55.28 798.321 55.28C799.305 55.28 800.187 55.49 800.967 55.91C801.747 56.33 802.353 56.912 802.785 57.656C803.229 58.4 803.451 59.246 803.451 60.194C803.451 61.142 803.229 61.994 802.785 62.75C802.353 63.494 801.747 64.076 800.967 64.496C800.187 64.916 799.305 65.126 798.321 65.126ZM798.321 63.2C799.149 63.2 799.833 62.924 800.373 62.372C800.913 61.82 801.183 61.094 801.183 60.194C801.183 59.294 800.913 58.568 800.373 58.016C799.833 57.464 799.149 57.188 798.321 57.188C797.493 57.188 796.809 57.464 796.269 58.016C795.741 58.568 795.477 59.294 795.477 60.194C795.477 61.094 795.741 61.82 796.269 62.372C796.809 62.924 797.493 63.2 798.321 63.2ZM812.937 57.296H809.571V65H807.321V57.296H803.937V55.388H812.937V57.296ZM824.178 63.092V67.142H822.072V65H814.656V67.142H812.568V63.092H813.018C813.63 63.068 814.044 62.678 814.26 61.922C814.488 61.154 814.638 60.074 814.71 58.682L814.836 55.388H822.756V63.092H824.178ZM816.762 58.844C816.714 59.948 816.624 60.848 816.492 61.544C816.36 62.24 816.12 62.756 815.772 63.092H820.506V57.296H816.816L816.762 58.844ZM835.188 60.248C835.188 60.404 835.176 60.626 835.152 60.914H827.61C827.742 61.622 828.084 62.186 828.636 62.606C829.2 63.014 829.896 63.218 830.724 63.218C831.78 63.218 832.65 62.87 833.334 62.174L834.54 63.56C834.108 64.076 833.562 64.466 832.902 64.73C832.242 64.994 831.498 65.126 830.67 65.126C829.614 65.126 828.684 64.916 827.88 64.496C827.076 64.076 826.452 63.494 826.008 62.75C825.576 61.994 825.36 61.142 825.36 60.194C825.36 59.258 825.57 58.418 825.99 57.674C826.422 56.918 827.016 56.33 827.772 55.91C828.528 55.49 829.38 55.28 830.328 55.28C831.264 55.28 832.098 55.49 832.83 55.91C833.574 56.318 834.15 56.9 834.558 57.656C834.978 58.4 835.188 59.264 835.188 60.248ZM830.328 57.08C829.608 57.08 828.996 57.296 828.492 57.728C828 58.148 827.7 58.712 827.592 59.42H833.046C832.95 58.724 832.656 58.16 832.164 57.728C831.672 57.296 831.06 57.08 830.328 57.08ZM846.238 55.388V65H843.988V57.296H840.388L840.298 59.204C840.238 60.476 840.118 61.544 839.938 62.408C839.77 63.26 839.476 63.938 839.056 64.442C838.648 64.934 838.084 65.18 837.364 65.18C837.028 65.18 836.614 65.114 836.122 64.982L836.23 63.092C836.398 63.128 836.542 63.146 836.662 63.146C837.118 63.146 837.46 62.966 837.688 62.606C837.916 62.234 838.06 61.796 838.12 61.292C838.192 60.776 838.252 60.044 838.3 59.096L838.462 55.388H846.238ZM852.85 55.28C854.266 55.28 855.346 55.622 856.09 56.306C856.846 56.978 857.224 57.998 857.224 59.366V65H855.1V63.83C854.824 64.25 854.428 64.574 853.912 64.802C853.408 65.018 852.796 65.126 852.076 65.126C851.356 65.126 850.726 65.006 850.186 64.766C849.646 64.514 849.226 64.172 848.926 63.74C848.638 63.296 848.494 62.798 848.494 62.246C848.494 61.382 848.812 60.692 849.448 60.176C850.096 59.648 851.11 59.384 852.49 59.384H854.974V59.24C854.974 58.568 854.77 58.052 854.362 57.692C853.966 57.332 853.372 57.152 852.58 57.152C852.04 57.152 851.506 57.236 850.978 57.404C850.462 57.572 850.024 57.806 849.664 58.106L848.782 56.468C849.286 56.084 849.892 55.79 850.6 55.586C851.308 55.382 852.058 55.28 852.85 55.28ZM852.544 63.488C853.108 63.488 853.606 63.362 854.038 63.11C854.482 62.846 854.794 62.474 854.974 61.994V60.878H852.652C851.356 60.878 850.708 61.304 850.708 62.156C850.708 62.564 850.87 62.888 851.194 63.128C851.518 63.368 851.968 63.488 852.544 63.488ZM870.311 55.28C871.247 55.28 872.081 55.484 872.813 55.892C873.557 56.3 874.139 56.876 874.559 57.62C874.979 58.364 875.189 59.222 875.189 60.194C875.189 61.166 874.979 62.03 874.559 62.786C874.139 63.53 873.557 64.106 872.813 64.514C872.081 64.922 871.247 65.126 870.311 65.126C869.015 65.126 867.989 64.694 867.233 63.83V68.492H864.983V55.388H867.125V56.648C867.497 56.192 867.953 55.85 868.493 55.622C869.045 55.394 869.651 55.28 870.311 55.28ZM870.059 63.2C870.887 63.2 871.565 62.924 872.093 62.372C872.633 61.82 872.903 61.094 872.903 60.194C872.903 59.294 872.633 58.568 872.093 58.016C871.565 57.464 870.887 57.188 870.059 57.188C869.519 57.188 869.033 57.314 868.601 57.566C868.169 57.806 867.827 58.154 867.575 58.61C867.323 59.066 867.197 59.594 867.197 60.194C867.197 60.794 867.323 61.322 867.575 61.778C867.827 62.234 868.169 62.588 868.601 62.84C869.033 63.08 869.519 63.2 870.059 63.2ZM886.428 60.248C886.428 60.404 886.416 60.626 886.392 60.914H878.85C878.982 61.622 879.324 62.186 879.876 62.606C880.44 63.014 881.136 63.218 881.964 63.218C883.02 63.218 883.89 62.87 884.574 62.174L885.78 63.56C885.348 64.076 884.802 64.466 884.142 64.73C883.482 64.994 882.738 65.126 881.91 65.126C880.854 65.126 879.924 64.916 879.12 64.496C878.316 64.076 877.692 63.494 877.248 62.75C876.816 61.994 876.6 61.142 876.6 60.194C876.6 59.258 876.81 58.418 877.23 57.674C877.662 56.918 878.256 56.33 879.012 55.91C879.768 55.49 880.62 55.28 881.568 55.28C882.504 55.28 883.338 55.49 884.07 55.91C884.814 56.318 885.39 56.9 885.798 57.656C886.218 58.4 886.428 59.264 886.428 60.248ZM881.568 57.08C880.848 57.08 880.236 57.296 879.732 57.728C879.24 58.148 878.94 58.712 878.832 59.42H884.286C884.19 58.724 883.896 58.16 883.404 57.728C882.912 57.296 882.3 57.08 881.568 57.08ZM892.885 61.148H891.139V65H888.889V55.388H891.139V59.276H892.939L895.783 55.388H898.195L894.703 60.014L898.429 65H895.783L892.885 61.148ZM908.728 55.388V65H906.478V57.296H902.878L902.788 59.204C902.728 60.476 902.608 61.544 902.428 62.408C902.26 63.26 901.966 63.938 901.546 64.442C901.138 64.934 900.574 65.18 899.854 65.18C899.518 65.18 899.104 65.114 898.612 64.982L898.72 63.092C898.888 63.128 899.032 63.146 899.152 63.146C899.608 63.146 899.95 62.966 900.178 62.606C900.406 62.234 900.55 61.796 900.61 61.292C900.682 60.776 900.742 60.044 900.79 59.096L900.952 55.388H908.728ZM915.34 55.28C916.756 55.28 917.836 55.622 918.58 56.306C919.336 56.978 919.714 57.998 919.714 59.366V65H917.59V63.83C917.314 64.25 916.918 64.574 916.402 64.802C915.898 65.018 915.286 65.126 914.566 65.126C913.846 65.126 913.216 65.006 912.676 64.766C912.136 64.514 911.716 64.172 911.416 63.74C911.128 63.296 910.984 62.798 910.984 62.246C910.984 61.382 911.302 60.692 911.938 60.176C912.586 59.648 913.6 59.384 914.98 59.384H917.464V59.24C917.464 58.568 917.26 58.052 916.852 57.692C916.456 57.332 915.862 57.152 915.07 57.152C914.53 57.152 913.996 57.236 913.468 57.404C912.952 57.572 912.514 57.806 912.154 58.106L911.272 56.468C911.776 56.084 912.382 55.79 913.09 55.586C913.798 55.382 914.548 55.28 915.34 55.28ZM915.034 63.488C915.598 63.488 916.096 63.362 916.528 63.11C916.972 62.846 917.284 62.474 917.464 61.994V60.878H915.142C913.846 60.878 913.198 61.304 913.198 62.156C913.198 62.564 913.36 62.888 913.684 63.128C914.008 63.368 914.458 63.488 915.034 63.488ZM931.948 65V58.628L928.708 63.992H927.736L924.55 58.61V65H922.498V55.388H924.856L928.276 61.4L931.858 55.388H933.964L933.982 65H931.948ZM940.582 55.28C941.998 55.28 943.078 55.622 943.822 56.306C944.578 56.978 944.956 57.998 944.956 59.366V65H942.832V63.83C942.556 64.25 942.16 64.574 941.644 64.802C941.14 65.018 940.528 65.126 939.808 65.126C939.088 65.126 938.458 65.006 937.918 64.766C937.378 64.514 936.958 64.172 936.658 63.74C936.37 63.296 936.226 62.798 936.226 62.246C936.226 61.382 936.544 60.692 937.18 60.176C937.828 59.648 938.842 59.384 940.222 59.384H942.706V59.24C942.706 58.568 942.502 58.052 942.094 57.692C941.698 57.332 941.104 57.152 940.312 57.152C939.772 57.152 939.238 57.236 938.71 57.404C938.194 57.572 937.756 57.806 937.396 58.106L936.514 56.468C937.018 56.084 937.624 55.79 938.332 55.586C939.04 55.382 939.79 55.28 940.582 55.28ZM940.276 63.488C940.84 63.488 941.338 63.362 941.77 63.11C942.214 62.846 942.526 62.474 942.706 61.994V60.878H940.384C939.088 60.878 938.44 61.304 938.44 62.156C938.44 62.564 938.602 62.888 938.926 63.128C939.25 63.368 939.7 63.488 940.276 63.488ZM958.289 63.092V67.214H956.183V65H947.741V55.388H949.991V63.092H954.581V55.388H956.831V63.092H958.289ZM960.291 55.388H962.541V61.724L967.851 55.388H969.903V65H967.653V58.664L962.361 65H960.291V55.388ZM972.93 55.388H975.18V61.724L980.49 55.388H982.542V65H980.292V58.664L975 65H972.93V55.388ZM977.592 54.254C976.62 54.254 975.876 54.032 975.36 53.588C974.856 53.132 974.598 52.472 974.586 51.608H976.08C976.092 52.04 976.224 52.382 976.476 52.634C976.74 52.886 977.106 53.012 977.574 53.012C978.03 53.012 978.39 52.886 978.654 52.634C978.93 52.382 979.074 52.04 979.086 51.608H980.616C980.604 52.472 980.34 53.132 979.824 53.588C979.308 54.032 978.564 54.254 977.592 54.254Z" fill="#1B2720"/>
<rect width="953" height="60" transform="translate(64 89)" fill="#228749" fill-opacity="0.3"/>
<path d="M737.56 125.18C736.288 125.18 735.136 124.904 734.104 124.352C733.084 123.788 732.28 123.014 731.692 122.03C731.116 121.046 730.828 119.936 730.828 118.7C730.828 117.464 731.122 116.354 731.71 115.37C732.298 114.386 733.102 113.618 734.122 113.066C735.154 112.502 736.306 112.22 737.578 112.22C738.61 112.22 739.552 112.4 740.404 112.76C741.256 113.12 741.976 113.642 742.564 114.326L741.052 115.748C740.14 114.764 739.018 114.272 737.686 114.272C736.822 114.272 736.048 114.464 735.364 114.848C734.68 115.22 734.146 115.742 733.762 116.414C733.378 117.086 733.186 117.848 733.186 118.7C733.186 119.552 733.378 120.314 733.762 120.986C734.146 121.658 734.68 122.186 735.364 122.57C736.048 122.942 736.822 123.128 737.686 123.128C739.018 123.128 740.14 122.63 741.052 121.634L742.564 123.074C741.976 123.758 741.25 124.28 740.386 124.64C739.534 125 738.592 125.18 737.56 125.18ZM748.417 125.126C747.445 125.126 746.569 124.916 745.789 124.496C745.009 124.076 744.397 123.494 743.953 122.75C743.521 121.994 743.305 121.142 743.305 120.194C743.305 119.246 743.521 118.4 743.953 117.656C744.397 116.912 745.009 116.33 745.789 115.91C746.569 115.49 747.445 115.28 748.417 115.28C749.401 115.28 750.283 115.49 751.063 115.91C751.843 116.33 752.449 116.912 752.881 117.656C753.325 118.4 753.547 119.246 753.547 120.194C753.547 121.142 753.325 121.994 752.881 122.75C752.449 123.494 751.843 124.076 751.063 124.496C750.283 124.916 749.401 125.126 748.417 125.126ZM748.417 123.2C749.245 123.2 749.929 122.924 750.469 122.372C751.009 121.82 751.279 121.094 751.279 120.194C751.279 119.294 751.009 118.568 750.469 118.016C749.929 117.464 749.245 117.188 748.417 117.188C747.589 117.188 746.905 117.464 746.365 118.016C745.837 118.568 745.573 119.294 745.573 120.194C745.573 121.094 745.837 121.82 746.365 122.372C746.905 122.924 747.589 123.2 748.417 123.2ZM761.371 119.996C761.971 120.164 762.433 120.44 762.757 120.824C763.093 121.196 763.261 121.646 763.261 122.174C763.261 122.762 763.063 123.284 762.667 123.74C762.271 124.184 761.725 124.532 761.029 124.784C760.333 125.036 759.541 125.162 758.653 125.162C757.909 125.162 757.183 125.078 756.475 124.91C755.767 124.73 755.125 124.478 754.549 124.154L755.197 122.48C755.665 122.744 756.193 122.948 756.781 123.092C757.369 123.236 757.957 123.308 758.545 123.308C759.301 123.308 759.889 123.194 760.309 122.966C760.741 122.726 760.957 122.402 760.957 121.994C760.957 121.622 760.789 121.334 760.453 121.13C760.129 120.926 759.667 120.824 759.067 120.824H757.195V119.312H758.887C759.451 119.312 759.889 119.216 760.201 119.024C760.525 118.832 760.687 118.562 760.687 118.214C760.687 117.866 760.495 117.59 760.111 117.386C759.727 117.182 759.199 117.08 758.527 117.08C757.567 117.08 756.553 117.314 755.485 117.782L754.909 116.126C756.169 115.538 757.441 115.244 758.725 115.244C759.541 115.244 760.273 115.358 760.921 115.586C761.569 115.802 762.073 116.114 762.433 116.522C762.805 116.918 762.991 117.374 762.991 117.89C762.991 118.358 762.847 118.778 762.559 119.15C762.271 119.51 761.875 119.792 761.371 119.996ZM775.856 123.092V127.142H773.75V125H766.334V127.142H764.246V123.092H764.696C765.308 123.068 765.722 122.678 765.938 121.922C766.166 121.154 766.316 120.074 766.388 118.682L766.514 115.388H774.434V123.092H775.856ZM768.44 118.844C768.392 119.948 768.302 120.848 768.17 121.544C768.038 122.24 767.798 122.756 767.45 123.092H772.184V117.296H768.494L768.44 118.844ZM781.448 115.28C782.864 115.28 783.944 115.622 784.688 116.306C785.444 116.978 785.822 117.998 785.822 119.366V125H783.698V123.83C783.422 124.25 783.026 124.574 782.51 124.802C782.006 125.018 781.394 125.126 780.674 125.126C779.954 125.126 779.324 125.006 778.784 124.766C778.244 124.514 777.824 124.172 777.524 123.74C777.236 123.296 777.092 122.798 777.092 122.246C777.092 121.382 777.41 120.692 778.046 120.176C778.694 119.648 779.708 119.384 781.088 119.384H783.572V119.24C783.572 118.568 783.368 118.052 782.96 117.692C782.564 117.332 781.97 117.152 781.178 117.152C780.638 117.152 780.104 117.236 779.576 117.404C779.06 117.572 778.622 117.806 778.262 118.106L777.38 116.468C777.884 116.084 778.49 115.79 779.198 115.586C779.906 115.382 780.656 115.28 781.448 115.28ZM781.142 123.488C781.706 123.488 782.204 123.362 782.636 123.11C783.08 122.846 783.392 122.474 783.572 121.994V120.878H781.25C779.954 120.878 779.306 121.304 779.306 122.156C779.306 122.564 779.468 122.888 779.792 123.128C780.116 123.368 780.566 123.488 781.142 123.488ZM788.606 115.388H790.856V119.294H795.698V115.388H797.948V125H795.698V121.202H790.856V125H788.606V115.388ZM800.963 115.388H803.213V121.724L808.523 115.388H810.575V125H808.325V118.664L803.033 125H800.963V115.388ZM822.602 120.248C822.602 120.404 822.59 120.626 822.566 120.914H815.024C815.156 121.622 815.498 122.186 816.05 122.606C816.614 123.014 817.31 123.218 818.138 123.218C819.194 123.218 820.064 122.87 820.748 122.174L821.954 123.56C821.522 124.076 820.976 124.466 820.316 124.73C819.656 124.994 818.912 125.126 818.084 125.126C817.028 125.126 816.098 124.916 815.294 124.496C814.49 124.076 813.866 123.494 813.422 122.75C812.99 121.994 812.774 121.142 812.774 120.194C812.774 119.258 812.984 118.418 813.404 117.674C813.836 116.918 814.43 116.33 815.186 115.91C815.942 115.49 816.794 115.28 817.742 115.28C818.678 115.28 819.512 115.49 820.244 115.91C820.988 116.318 821.564 116.9 821.972 117.656C822.392 118.4 822.602 119.264 822.602 120.248ZM817.742 117.08C817.022 117.08 816.41 117.296 815.906 117.728C815.414 118.148 815.114 118.712 815.006 119.42H820.46C820.364 118.724 820.07 118.16 819.578 117.728C819.086 117.296 818.474 117.08 817.742 117.08ZM844.203 115.388V125H830.037V115.388H832.287V123.092H836.013V115.388H838.263V123.092H841.953V115.388H844.203ZM851.225 121.148H849.479V125H847.229V115.388H849.479V119.276H851.279L854.123 115.388H856.535L853.043 120.014L856.769 125H854.123L851.225 121.148ZM862.323 125.126C861.351 125.126 860.475 124.916 859.695 124.496C858.915 124.076 858.303 123.494 857.859 122.75C857.427 121.994 857.211 121.142 857.211 120.194C857.211 119.246 857.427 118.4 857.859 117.656C858.303 116.912 858.915 116.33 859.695 115.91C860.475 115.49 861.351 115.28 862.323 115.28C863.307 115.28 864.189 115.49 864.969 115.91C865.749 116.33 866.355 116.912 866.787 117.656C867.231 118.4 867.453 119.246 867.453 120.194C867.453 121.142 867.231 121.994 866.787 122.75C866.355 123.494 865.749 124.076 864.969 124.496C864.189 124.916 863.307 125.126 862.323 125.126ZM862.323 123.2C863.151 123.2 863.835 122.924 864.375 122.372C864.915 121.82 865.185 121.094 865.185 120.194C865.185 119.294 864.915 118.568 864.375 118.016C863.835 117.464 863.151 117.188 862.323 117.188C861.495 117.188 860.811 117.464 860.271 118.016C859.743 118.568 859.479 119.294 859.479 120.194C859.479 121.094 859.743 121.82 860.271 122.372C860.811 122.924 861.495 123.2 862.323 123.2ZM878.283 115.388V125H876.033V117.296H872.433L872.343 119.204C872.283 120.476 872.163 121.544 871.983 122.408C871.815 123.26 871.521 123.938 871.101 124.442C870.693 124.934 870.129 125.18 869.409 125.18C869.073 125.18 868.659 125.114 868.167 124.982L868.275 123.092C868.443 123.128 868.587 123.146 868.707 123.146C869.163 123.146 869.505 122.966 869.733 122.606C869.961 122.234 870.105 121.796 870.165 121.292C870.237 120.776 870.297 120.044 870.345 119.096L870.507 115.388H878.283ZM885.993 118.556C887.217 118.556 888.153 118.832 888.801 119.384C889.449 119.936 889.773 120.716 889.773 121.724C889.773 122.78 889.413 123.596 888.693 124.172C887.985 124.748 886.977 125.03 885.669 125.018L881.313 125V115.388H883.563V118.538L885.993 118.556ZM891.015 115.388H893.265V125H891.015V115.388ZM885.471 123.362C886.131 123.374 886.635 123.236 886.983 122.948C887.331 122.66 887.505 122.24 887.505 121.688C887.505 121.148 887.337 120.752 887.001 120.5C886.665 120.248 886.155 120.116 885.471 120.104L883.563 120.086V123.344L885.471 123.362ZM910.714 125V118.628L907.474 123.992H906.502L903.316 118.61V125H901.264V115.388H903.622L907.042 121.4L910.624 115.388H912.73L912.748 125H910.714ZM920.05 125.126C919.078 125.126 918.202 124.916 917.422 124.496C916.642 124.076 916.03 123.494 915.586 122.75C915.154 121.994 914.938 121.142 914.938 120.194C914.938 119.246 915.154 118.4 915.586 117.656C916.03 116.912 916.642 116.33 917.422 115.91C918.202 115.49 919.078 115.28 920.05 115.28C921.034 115.28 921.916 115.49 922.696 115.91C923.476 116.33 924.082 116.912 924.514 117.656C924.958 118.4 925.18 119.246 925.18 120.194C925.18 121.142 924.958 121.994 924.514 122.75C924.082 123.494 923.476 124.076 922.696 124.496C921.916 124.916 921.034 125.126 920.05 125.126ZM920.05 123.2C920.878 123.2 921.562 122.924 922.102 122.372C922.642 121.82 922.912 121.094 922.912 120.194C922.912 119.294 922.642 118.568 922.102 118.016C921.562 117.464 920.878 117.188 920.05 117.188C919.222 117.188 918.538 117.464 917.998 118.016C917.47 118.568 917.206 119.294 917.206 120.194C917.206 121.094 917.47 121.82 917.998 122.372C918.538 122.924 919.222 123.2 920.05 123.2ZM927.403 115.388H929.653V119.294H934.495V115.388H936.745V125H934.495V121.202H929.653V125H927.403V115.388ZM947.374 117.296H944.008V125H941.758V117.296H938.374V115.388H947.374V117.296ZM952.588 115.28C954.004 115.28 955.084 115.622 955.828 116.306C956.584 116.978 956.962 117.998 956.962 119.366V125H954.838V123.83C954.562 124.25 954.166 124.574 953.65 124.802C953.146 125.018 952.534 125.126 951.814 125.126C951.094 125.126 950.464 125.006 949.924 124.766C949.384 124.514 948.964 124.172 948.664 123.74C948.376 123.296 948.232 122.798 948.232 122.246C948.232 121.382 948.55 120.692 949.186 120.176C949.834 119.648 950.848 119.384 952.228 119.384H954.712V119.24C954.712 118.568 954.508 118.052 954.1 117.692C953.704 117.332 953.11 117.152 952.318 117.152C951.778 117.152 951.244 117.236 950.716 117.404C950.2 117.572 949.762 117.806 949.402 118.106L948.52 116.468C949.024 116.084 949.63 115.79 950.338 115.586C951.046 115.382 951.796 115.28 952.588 115.28ZM952.282 123.488C952.846 123.488 953.344 123.362 953.776 123.11C954.22 122.846 954.532 122.474 954.712 121.994V120.878H952.39C951.094 120.878 950.446 121.304 950.446 122.156C950.446 122.564 950.608 122.888 950.932 123.128C951.256 123.368 951.706 123.488 952.282 123.488ZM968.872 121.148H967.252V125H965.02V121.148H963.4L961.06 125H958.396L961.546 120.032L958.63 115.388H961.024L963.364 119.276H965.02V115.388H967.252V119.276H968.89L971.248 115.388H973.642L970.726 120.032L973.894 125H971.212L968.872 121.148ZM978.973 115.28C980.389 115.28 981.469 115.622 982.213 116.306C982.969 116.978 983.347 117.998 983.347 119.366V125H981.223V123.83C980.947 124.25 980.551 124.574 980.035 124.802C979.531 125.018 978.919 125.126 978.199 125.126C977.479 125.126 976.849 125.006 976.309 124.766C975.769 124.514 975.349 124.172 975.049 123.74C974.761 123.296 974.617 122.798 974.617 122.246C974.617 121.382 974.935 120.692 975.571 120.176C976.219 119.648 977.233 119.384 978.613 119.384H981.097V119.24C981.097 118.568 980.893 118.052 980.485 117.692C980.089 117.332 979.495 117.152 978.703 117.152C978.163 117.152 977.629 117.236 977.101 117.404C976.585 117.572 976.147 117.806 975.787 118.106L974.905 116.468C975.409 116.084 976.015 115.79 976.723 115.586C977.431 115.382 978.181 115.28 978.973 115.28ZM978.667 123.488C979.231 123.488 979.729 123.362 980.161 123.11C980.605 122.846 980.917 122.474 981.097 121.994V120.878H978.775C977.479 120.878 976.831 121.304 976.831 122.156C976.831 122.564 976.993 122.888 977.317 123.128C977.641 123.368 978.091 123.488 978.667 123.488Z" fill="#1B2720"/>
<rect width="953" height="60" transform="translate(64 149)" fill="#228749" fill-opacity="0.5"/>
<path d="M698.062 178.448C698.866 178.664 699.478 179.036 699.898 179.564C700.318 180.08 700.528 180.728 700.528 181.508C700.528 182.612 700.12 183.47 699.304 184.082C698.488 184.694 697.306 185 695.758 185H689.782V172.4H695.416C696.832 172.4 697.936 172.682 698.728 173.246C699.52 173.81 699.916 174.608 699.916 175.64C699.916 176.3 699.754 176.87 699.43 177.35C699.118 177.83 698.662 178.196 698.062 178.448ZM692.086 177.782H695.218C695.974 177.782 696.55 177.632 696.946 177.332C697.342 177.032 697.54 176.588 697.54 176C697.54 175.412 697.342 174.968 696.946 174.668C696.55 174.356 695.974 174.2 695.218 174.2H692.086V177.782ZM695.686 183.2C697.342 183.2 698.17 182.576 698.17 181.328C698.17 180.104 697.342 179.492 695.686 179.492H692.086V183.2H695.686ZM702.942 175.388H705.192V179.294H710.034V175.388H712.284V185H710.034V181.202H705.192V185H702.942V175.388ZM724.299 180.248C724.299 180.404 724.287 180.626 724.263 180.914H716.721C716.853 181.622 717.195 182.186 717.747 182.606C718.311 183.014 719.007 183.218 719.835 183.218C720.891 183.218 721.761 182.87 722.445 182.174L723.651 183.56C723.219 184.076 722.673 184.466 722.013 184.73C721.353 184.994 720.609 185.126 719.781 185.126C718.725 185.126 717.795 184.916 716.991 184.496C716.187 184.076 715.563 183.494 715.119 182.75C714.687 181.994 714.471 181.142 714.471 180.194C714.471 179.258 714.681 178.418 715.101 177.674C715.533 176.918 716.127 176.33 716.883 175.91C717.639 175.49 718.491 175.28 719.439 175.28C720.375 175.28 721.209 175.49 721.941 175.91C722.685 176.318 723.261 176.9 723.669 177.656C724.089 178.4 724.299 179.264 724.299 180.248ZM719.439 177.08C718.719 177.08 718.107 177.296 717.603 177.728C717.111 178.148 716.811 178.712 716.703 179.42H722.157C722.061 178.724 721.767 178.16 721.275 177.728C720.783 177.296 720.171 177.08 719.439 177.08ZM736.897 183.092V187.142H734.791V185H727.375V187.142H725.287V183.092H725.737C726.349 183.068 726.763 182.678 726.979 181.922C727.207 181.154 727.357 180.074 727.429 178.682L727.555 175.388H735.475V183.092H736.897ZM729.481 178.844C729.433 179.948 729.343 180.848 729.211 181.544C729.079 182.24 728.839 182.756 728.491 183.092H733.225V177.296H729.535L729.481 178.844ZM744.235 175.28C745.171 175.28 746.005 175.484 746.737 175.892C747.481 176.3 748.063 176.876 748.483 177.62C748.903 178.364 749.113 179.222 749.113 180.194C749.113 181.166 748.903 182.03 748.483 182.786C748.063 183.53 747.481 184.106 746.737 184.514C746.005 184.922 745.171 185.126 744.235 185.126C742.939 185.126 741.913 184.694 741.157 183.83V188.492H738.907V175.388H741.049V176.648C741.421 176.192 741.877 175.85 742.417 175.622C742.969 175.394 743.575 175.28 744.235 175.28ZM743.983 183.2C744.811 183.2 745.489 182.924 746.017 182.372C746.557 181.82 746.827 181.094 746.827 180.194C746.827 179.294 746.557 178.568 746.017 178.016C745.489 177.464 744.811 177.188 743.983 177.188C743.443 177.188 742.957 177.314 742.525 177.566C742.093 177.806 741.751 178.154 741.499 178.61C741.247 179.066 741.121 179.594 741.121 180.194C741.121 180.794 741.247 181.322 741.499 181.778C741.751 182.234 742.093 182.588 742.525 182.84C742.957 183.08 743.443 183.2 743.983 183.2ZM760.352 180.248C760.352 180.404 760.34 180.626 760.316 180.914H752.774C752.906 181.622 753.248 182.186 753.8 182.606C754.364 183.014 755.06 183.218 755.888 183.218C756.944 183.218 757.814 182.87 758.498 182.174L759.704 183.56C759.272 184.076 758.726 184.466 758.066 184.73C757.406 184.994 756.662 185.126 755.834 185.126C754.778 185.126 753.848 184.916 753.044 184.496C752.24 184.076 751.616 183.494 751.172 182.75C750.74 181.994 750.524 181.142 750.524 180.194C750.524 179.258 750.734 178.418 751.154 177.674C751.586 176.918 752.18 176.33 752.936 175.91C753.692 175.49 754.544 175.28 755.492 175.28C756.428 175.28 757.262 175.49 757.994 175.91C758.738 176.318 759.314 176.9 759.722 177.656C760.142 178.4 760.352 179.264 760.352 180.248ZM755.492 177.08C754.772 177.08 754.16 177.296 753.656 177.728C753.164 178.148 752.864 178.712 752.756 179.42H758.21C758.114 178.724 757.82 178.16 757.328 177.728C756.836 177.296 756.224 177.08 755.492 177.08ZM762.813 175.388H765.063V179.294H769.905V175.388H772.155V185H769.905V181.202H765.063V185H762.813V175.388ZM775.17 175.388H777.42V181.724L782.73 175.388H784.782V185H782.532V178.664L777.24 185H775.17V175.388ZM796.809 180.248C796.809 180.404 796.797 180.626 796.773 180.914H789.231C789.363 181.622 789.705 182.186 790.257 182.606C790.821 183.014 791.517 183.218 792.345 183.218C793.401 183.218 794.271 182.87 794.955 182.174L796.161 183.56C795.729 184.076 795.183 184.466 794.523 184.73C793.863 184.994 793.119 185.126 792.291 185.126C791.235 185.126 790.305 184.916 789.501 184.496C788.697 184.076 788.073 183.494 787.629 182.75C787.197 181.994 786.981 181.142 786.981 180.194C786.981 179.258 787.191 178.418 787.611 177.674C788.043 176.918 788.637 176.33 789.393 175.91C790.149 175.49 791.001 175.28 791.949 175.28C792.885 175.28 793.719 175.49 794.451 175.91C795.195 176.318 795.771 176.9 796.179 177.656C796.599 178.4 796.809 179.264 796.809 180.248ZM791.949 177.08C791.229 177.08 790.617 177.296 790.113 177.728C789.621 178.148 789.321 178.712 789.213 179.42H794.667C794.571 178.724 794.277 178.16 793.785 177.728C793.293 177.296 792.681 177.08 791.949 177.08ZM808.24 181.148H806.494V185H804.244V175.388H806.494V179.276H808.294L811.138 175.388H813.55L810.058 180.014L813.784 185H811.138L808.24 181.148ZM819.339 185.126C818.367 185.126 817.491 184.916 816.711 184.496C815.931 184.076 815.319 183.494 814.875 182.75C814.443 181.994 814.227 181.142 814.227 180.194C814.227 179.246 814.443 178.4 814.875 177.656C815.319 176.912 815.931 176.33 816.711 175.91C817.491 175.49 818.367 175.28 819.339 175.28C820.323 175.28 821.205 175.49 821.985 175.91C822.765 176.33 823.371 176.912 823.803 177.656C824.247 178.4 824.469 179.246 824.469 180.194C824.469 181.142 824.247 181.994 823.803 182.75C823.371 183.494 822.765 184.076 821.985 184.496C821.205 184.916 820.323 185.126 819.339 185.126ZM819.339 183.2C820.167 183.2 820.851 182.924 821.391 182.372C821.931 181.82 822.201 181.094 822.201 180.194C822.201 179.294 821.931 178.568 821.391 178.016C820.851 177.464 820.167 177.188 819.339 177.188C818.511 177.188 817.827 177.464 817.287 178.016C816.759 178.568 816.495 179.294 816.495 180.194C816.495 181.094 816.759 181.82 817.287 182.372C817.827 182.924 818.511 183.2 819.339 183.2ZM826.692 175.388H828.942V179.294H833.784V175.388H836.034V185H833.784V181.202H828.942V185H826.692V175.388ZM846.663 177.296H843.297V185H841.047V177.296H837.663V175.388H846.663V177.296ZM853.623 175.28C854.559 175.28 855.393 175.484 856.125 175.892C856.869 176.3 857.451 176.876 857.871 177.62C858.291 178.364 858.501 179.222 858.501 180.194C858.501 181.166 858.291 182.03 857.871 182.786C857.451 183.53 856.869 184.106 856.125 184.514C855.393 184.922 854.559 185.126 853.623 185.126C852.327 185.126 851.301 184.694 850.545 183.83V188.492H848.295V175.388H850.437V176.648C850.809 176.192 851.265 175.85 851.805 175.622C852.357 175.394 852.963 175.28 853.623 175.28ZM853.371 183.2C854.199 183.2 854.877 182.924 855.405 182.372C855.945 181.82 856.215 181.094 856.215 180.194C856.215 179.294 855.945 178.568 855.405 178.016C854.877 177.464 854.199 177.188 853.371 177.188C852.831 177.188 852.345 177.314 851.913 177.566C851.481 177.806 851.139 178.154 850.887 178.61C850.635 179.066 850.509 179.594 850.509 180.194C850.509 180.794 850.635 181.322 850.887 181.778C851.139 182.234 851.481 182.588 851.913 182.84C852.345 183.08 852.831 183.2 853.371 183.2ZM865.025 185.126C864.053 185.126 863.177 184.916 862.397 184.496C861.617 184.076 861.005 183.494 860.561 182.75C860.129 181.994 859.913 181.142 859.913 180.194C859.913 179.246 860.129 178.4 860.561 177.656C861.005 176.912 861.617 176.33 862.397 175.91C863.177 175.49 864.053 175.28 865.025 175.28C866.009 175.28 866.891 175.49 867.671 175.91C868.451 176.33 869.057 176.912 869.489 177.656C869.933 178.4 870.155 179.246 870.155 180.194C870.155 181.142 869.933 181.994 869.489 182.75C869.057 183.494 868.451 184.076 867.671 184.496C866.891 184.916 866.009 185.126 865.025 185.126ZM865.025 183.2C865.853 183.2 866.537 182.924 867.077 182.372C867.617 181.82 867.887 181.094 867.887 180.194C867.887 179.294 867.617 178.568 867.077 178.016C866.537 177.464 865.853 177.188 865.025 177.188C864.197 177.188 863.513 177.464 862.973 178.016C862.445 178.568 862.181 179.294 862.181 180.194C862.181 181.094 862.445 181.82 862.973 182.372C863.513 182.924 864.197 183.2 865.025 183.2ZM880.984 175.388V185H878.734V177.296H875.134L875.044 179.204C874.984 180.476 874.864 181.544 874.684 182.408C874.516 183.26 874.222 183.938 873.802 184.442C873.394 184.934 872.83 185.18 872.11 185.18C871.774 185.18 871.36 185.114 870.868 184.982L870.976 183.092C871.144 183.128 871.288 183.146 871.408 183.146C871.864 183.146 872.206 182.966 872.434 182.606C872.662 182.234 872.806 181.796 872.866 181.292C872.938 180.776 872.998 180.044 873.046 179.096L873.208 175.388H880.984ZM892.132 175.388V185H890.116V182.102H887.578L885.616 185H883.204L885.472 181.796C884.776 181.556 884.242 181.19 883.87 180.698C883.51 180.194 883.33 179.576 883.33 178.844C883.33 177.74 883.72 176.888 884.5 176.288C885.28 175.688 886.354 175.388 887.722 175.388H892.132ZM887.794 177.278C886.342 177.278 885.616 177.824 885.616 178.916C885.616 179.996 886.318 180.536 887.722 180.536H890.116V177.278H887.794ZM904.129 181.148H902.383V185H900.133V175.388H902.383V179.276H904.183L907.027 175.388H909.439L905.947 180.014L909.673 185H907.027L904.129 181.148ZM914.666 175.28C916.082 175.28 917.162 175.622 917.906 176.306C918.662 176.978 919.04 177.998 919.04 179.366V185H916.916V183.83C916.64 184.25 916.244 184.574 915.728 184.802C915.224 185.018 914.612 185.126 913.892 185.126C913.172 185.126 912.542 185.006 912.002 184.766C911.462 184.514 911.042 184.172 910.742 183.74C910.454 183.296 910.31 182.798 910.31 182.246C910.31 181.382 910.628 180.692 911.264 180.176C911.912 179.648 912.926 179.384 914.306 179.384H916.79V179.24C916.79 178.568 916.586 178.052 916.178 177.692C915.782 177.332 915.188 177.152 914.396 177.152C913.856 177.152 913.322 177.236 912.794 177.404C912.278 177.572 911.84 177.806 911.48 178.106L910.598 176.468C911.102 176.084 911.708 175.79 912.416 175.586C913.124 175.382 913.874 175.28 914.666 175.28ZM914.36 183.488C914.924 183.488 915.422 183.362 915.854 183.11C916.298 182.846 916.61 182.474 916.79 181.994V180.878H914.468C913.172 180.878 912.524 181.304 912.524 182.156C912.524 182.564 912.686 182.888 913.01 183.128C913.334 183.368 913.784 183.488 914.36 183.488ZM929.979 175.388V185H927.729V181.274C926.805 181.718 925.839 181.94 924.831 181.94C923.595 181.94 922.647 181.658 921.987 181.094C921.327 180.518 920.997 179.642 920.997 178.466V175.388H923.247V178.322C923.247 178.934 923.427 179.39 923.787 179.69C924.147 179.99 924.657 180.14 925.317 180.14C926.157 180.14 926.961 179.96 927.729 179.6V175.388H929.979ZM942.004 180.248C942.004 180.404 941.992 180.626 941.968 180.914H934.426C934.558 181.622 934.9 182.186 935.452 182.606C936.016 183.014 936.712 183.218 937.54 183.218C938.596 183.218 939.466 182.87 940.15 182.174L941.356 183.56C940.924 184.076 940.378 184.466 939.718 184.73C939.058 184.994 938.314 185.126 937.486 185.126C936.43 185.126 935.5 184.916 934.696 184.496C933.892 184.076 933.268 183.494 932.824 182.75C932.392 181.994 932.176 181.142 932.176 180.194C932.176 179.258 932.386 178.418 932.806 177.674C933.238 176.918 933.832 176.33 934.588 175.91C935.344 175.49 936.196 175.28 937.144 175.28C938.08 175.28 938.914 175.49 939.646 175.91C940.39 176.318 940.966 176.9 941.374 177.656C941.794 178.4 942.004 179.264 942.004 180.248ZM937.144 177.08C936.424 177.08 935.812 177.296 935.308 177.728C934.816 178.148 934.516 178.712 934.408 179.42H939.862C939.766 178.724 939.472 178.16 938.98 177.728C938.488 177.296 937.876 177.08 937.144 177.08ZM948.839 185.126C947.843 185.126 946.949 184.916 946.157 184.496C945.365 184.076 944.747 183.494 944.303 182.75C943.859 181.994 943.637 181.142 943.637 180.194C943.637 179.246 943.859 178.4 944.303 177.656C944.747 176.912 945.359 176.33 946.139 175.91C946.931 175.49 947.831 175.28 948.839 175.28C949.787 175.28 950.615 175.472 951.323 175.856C952.043 176.24 952.583 176.792 952.943 177.512L951.215 178.52C950.939 178.076 950.591 177.746 950.171 177.53C949.763 177.302 949.313 177.188 948.821 177.188C947.981 177.188 947.285 177.464 946.733 178.016C946.181 178.556 945.905 179.282 945.905 180.194C945.905 181.106 946.175 181.838 946.715 182.39C947.267 182.93 947.969 183.2 948.821 183.2C949.313 183.2 949.763 183.092 950.171 182.876C950.591 182.648 950.939 182.312 951.215 181.868L952.943 182.876C952.571 183.596 952.025 184.154 951.305 184.55C950.597 184.934 949.775 185.126 948.839 185.126ZM962.45 177.296H959.084V185H956.834V177.296H953.45V175.388H962.45V177.296ZM971.048 179.996C972.236 180.356 972.83 181.124 972.83 182.3C972.83 183.164 972.506 183.83 971.858 184.298C971.21 184.766 970.25 185 968.978 185H964.082V175.388H968.78C969.956 175.388 970.874 175.604 971.534 176.036C972.194 176.468 972.524 177.08 972.524 177.872C972.524 178.364 972.392 178.79 972.128 179.15C971.876 179.51 971.516 179.792 971.048 179.996ZM966.224 179.402H968.582C969.746 179.402 970.328 179 970.328 178.196C970.328 177.416 969.746 177.026 968.582 177.026H966.224V179.402ZM968.798 183.362C970.034 183.362 970.652 182.96 970.652 182.156C970.652 181.736 970.508 181.424 970.22 181.22C969.932 181.004 969.482 180.896 968.87 180.896H966.224V183.362H968.798ZM978.809 175.28C980.225 175.28 981.305 175.622 982.049 176.306C982.805 176.978 983.183 177.998 983.183 179.366V185H981.059V183.83C980.783 184.25 980.387 184.574 979.871 184.802C979.367 185.018 978.755 185.126 978.035 185.126C977.315 185.126 976.685 185.006 976.145 184.766C975.605 184.514 975.185 184.172 974.885 183.74C974.597 183.296 974.453 182.798 974.453 182.246C974.453 181.382 974.771 180.692 975.407 180.176C976.055 179.648 977.069 179.384 978.449 179.384H980.933V179.24C980.933 178.568 980.729 178.052 980.321 177.692C979.925 177.332 979.331 177.152 978.539 177.152C977.999 177.152 977.465 177.236 976.937 177.404C976.421 177.572 975.983 177.806 975.623 178.106L974.741 176.468C975.245 176.084 975.851 175.79 976.559 175.586C977.267 175.382 978.017 175.28 978.809 175.28ZM978.503 183.488C979.067 183.488 979.565 183.362 979.997 183.11C980.441 182.846 980.753 182.474 980.933 181.994V180.878H978.611C977.315 180.878 976.667 181.304 976.667 182.156C976.667 182.564 976.829 182.888 977.153 183.128C977.477 183.368 977.927 183.488 978.503 183.488Z" fill="#1B2720"/>
<path d="M8.8418 11.1738C8.8418 11.9941 8.61035 12.665 8.14746 13.1865C7.69043 13.708 7.04004 14.0566 6.19629 14.2324V14.3027C7.22754 14.4316 7.99219 14.7598 8.49023 15.2871C8.98828 15.8145 9.2373 16.5059 9.2373 17.3613C9.2373 18.5859 8.8125 19.5293 7.96289 20.1914C7.11328 20.8477 5.90625 21.1758 4.3418 21.1758C3.66211 21.1758 3.03809 21.123 2.46973 21.0176C1.90723 20.918 1.35938 20.7393 0.826172 20.4814V19.0928C1.38281 19.3682 1.97461 19.5791 2.60156 19.7256C3.23438 19.8662 3.83203 19.9365 4.39453 19.9365C6.61523 19.9365 7.72559 19.0664 7.72559 17.3262C7.72559 15.7676 6.50098 14.9883 4.05176 14.9883H2.78613V13.7314H4.06934C5.07129 13.7314 5.86523 13.5117 6.45117 13.0723C7.03711 12.627 7.33008 12.0117 7.33008 11.2266C7.33008 10.5996 7.11328 10.1074 6.67969 9.75C6.25195 9.39258 5.66895 9.21387 4.93066 9.21387C4.36816 9.21387 3.83789 9.29004 3.33984 9.44238C2.8418 9.59473 2.27344 9.87598 1.63477 10.2861L0.896484 9.30176C1.42383 8.88574 2.03027 8.56055 2.71582 8.32617C3.40723 8.08594 4.13379 7.96582 4.89551 7.96582C6.14355 7.96582 7.11328 8.25293 7.80469 8.82715C8.49609 9.39551 8.8418 10.1777 8.8418 11.1738ZM13.377 18.9082L13.5088 19.1104C13.3564 19.6963 13.1367 20.376 12.8496 21.1494C12.5625 21.9287 12.2637 22.6523 11.9531 23.3203H10.8545C11.0127 22.7109 11.1855 21.958 11.373 21.0615C11.5664 20.165 11.7012 19.4473 11.7773 18.9082H13.377ZM24.0381 21H15.5918V19.7432L18.9756 16.3418C20.0068 15.2988 20.6865 14.5547 21.0146 14.1094C21.3428 13.6641 21.5889 13.2305 21.7529 12.8086C21.917 12.3867 21.999 11.9326 21.999 11.4463C21.999 10.7607 21.791 10.2188 21.375 9.82031C20.959 9.41602 20.3818 9.21387 19.6436 9.21387C19.1104 9.21387 18.6035 9.30176 18.123 9.47754C17.6484 9.65332 17.1182 9.97266 16.5322 10.4355L15.7588 9.44238C16.9424 8.45801 18.2314 7.96582 19.626 7.96582C20.833 7.96582 21.7793 8.27637 22.4648 8.89746C23.1504 9.5127 23.4932 10.3418 23.4932 11.3848C23.4932 12.1992 23.2646 13.0049 22.8076 13.8018C22.3506 14.5986 21.4951 15.6064 20.2412 16.8252L17.4287 19.5762V19.6465H24.0381V21ZM27.1406 11.9824C27.1406 12.9785 27.249 13.7256 27.4658 14.2236C27.6826 14.7217 28.0342 14.9707 28.5205 14.9707C29.4814 14.9707 29.9619 13.9746 29.9619 11.9824C29.9619 10.002 29.4814 9.01172 28.5205 9.01172C28.0342 9.01172 27.6826 9.25781 27.4658 9.75C27.249 10.2422 27.1406 10.9863 27.1406 11.9824ZM31.166 11.9824C31.166 13.3184 30.9404 14.3291 30.4893 15.0146C30.0439 15.6943 29.3877 16.0342 28.5205 16.0342C27.7002 16.0342 27.0615 15.6855 26.6045 14.9883C26.1533 14.291 25.9277 13.2891 25.9277 11.9824C25.9277 10.6523 26.1445 9.65039 26.5781 8.97656C27.0176 8.30273 27.665 7.96582 28.5205 7.96582C29.3701 7.96582 30.0234 8.31445 30.4805 9.01172C30.9375 9.70898 31.166 10.6992 31.166 11.9824ZM34.875 17.1328C34.875 18.1348 34.9834 18.8848 35.2002 19.3828C35.417 19.875 35.7715 20.1211 36.2637 20.1211C36.7559 20.1211 37.1191 19.8779 37.3535 19.3916C37.5879 18.8994 37.7051 18.1465 37.7051 17.1328C37.7051 16.1309 37.5879 15.3896 37.3535 14.9092C37.1191 14.4229 36.7559 14.1797 36.2637 14.1797C35.7715 14.1797 35.417 14.4229 35.2002 14.9092C34.9834 15.3896 34.875 16.1309 34.875 17.1328ZM38.9092 17.1328C38.9092 18.4629 38.6836 19.4707 38.2324 20.1562C37.7871 20.8359 37.1309 21.1758 36.2637 21.1758C35.4316 21.1758 34.79 20.8271 34.3389 20.1299C33.8936 19.4326 33.6709 18.4336 33.6709 17.1328C33.6709 15.8027 33.8877 14.8008 34.3213 14.127C34.7607 13.4531 35.4082 13.1162 36.2637 13.1162C37.0957 13.1162 37.7432 13.4619 38.2061 14.1533C38.6748 14.8389 38.9092 15.832 38.9092 17.1328ZM36.6416 8.15039L29.5137 21H28.2217L35.3496 8.15039H36.6416Z" fill="#1B2720"/>
<path d="M9.3252 81H0.878906V79.7432L4.2627 76.3418C5.29395 75.2988 5.97363 74.5547 6.30176 74.1094C6.62988 73.6641 6.87598 73.2305 7.04004 72.8086C7.2041 72.3867 7.28613 71.9326 7.28613 71.4463C7.28613 70.7607 7.07812 70.2188 6.66211 69.8203C6.24609 69.416 5.66895 69.2139 4.93066 69.2139C4.39746 69.2139 3.89062 69.3018 3.41016 69.4775C2.93555 69.6533 2.40527 69.9727 1.81934 70.4355L1.0459 69.4424C2.22949 68.458 3.51855 67.9658 4.91309 67.9658C6.12012 67.9658 7.06641 68.2764 7.75195 68.8975C8.4375 69.5127 8.78027 70.3418 8.78027 71.3848C8.78027 72.1992 8.55176 73.0049 8.09473 73.8018C7.6377 74.5986 6.78223 75.6064 5.52832 76.8252L2.71582 79.5762V79.6465H9.3252V81ZM13.377 78.9082L13.5088 79.1104C13.3564 79.6963 13.1367 80.376 12.8496 81.1494C12.5625 81.9287 12.2637 82.6523 11.9531 83.3203H10.8545C11.0127 82.7109 11.1855 81.958 11.373 81.0615C11.5664 80.165 11.7012 79.4473 11.7773 78.9082H13.377ZM24.6445 78.0469H22.7373V81H21.3398V78.0469H15.0908V76.7725L21.1904 68.0801H22.7373V76.7197H24.6445V78.0469ZM21.3398 76.7197V72.4482C21.3398 71.6104 21.3691 70.6641 21.4277 69.6094H21.3574C21.0762 70.1719 20.8125 70.6377 20.5664 71.0068L16.5498 76.7197H21.3398ZM27.1406 71.9824C27.1406 72.9785 27.249 73.7256 27.4658 74.2236C27.6826 74.7217 28.0342 74.9707 28.5205 74.9707C29.4814 74.9707 29.9619 73.9746 29.9619 71.9824C29.9619 70.002 29.4814 69.0117 28.5205 69.0117C28.0342 69.0117 27.6826 69.2578 27.4658 69.75C27.249 70.2422 27.1406 70.9863 27.1406 71.9824ZM31.166 71.9824C31.166 73.3184 30.9404 74.3291 30.4893 75.0146C30.0439 75.6943 29.3877 76.0342 28.5205 76.0342C27.7002 76.0342 27.0615 75.6855 26.6045 74.9883C26.1533 74.291 25.9277 73.2891 25.9277 71.9824C25.9277 70.6523 26.1445 69.6504 26.5781 68.9766C27.0176 68.3027 27.665 67.9658 28.5205 67.9658C29.3701 67.9658 30.0234 68.3145 30.4805 69.0117C30.9375 69.709 31.166 70.6992 31.166 71.9824ZM34.875 77.1328C34.875 78.1348 34.9834 78.8848 35.2002 79.3828C35.417 79.875 35.7715 80.1211 36.2637 80.1211C36.7559 80.1211 37.1191 79.8779 37.3535 79.3916C37.5879 78.8994 37.7051 78.1465 37.7051 77.1328C37.7051 76.1309 37.5879 75.3896 37.3535 74.9092C37.1191 74.4229 36.7559 74.1797 36.2637 74.1797C35.7715 74.1797 35.417 74.4229 35.2002 74.9092C34.9834 75.3896 34.875 76.1309 34.875 77.1328ZM38.9092 77.1328C38.9092 78.4629 38.6836 79.4707 38.2324 80.1562C37.7871 80.8359 37.1309 81.1758 36.2637 81.1758C35.4316 81.1758 34.79 80.8271 34.3389 80.1299C33.8936 79.4326 33.6709 78.4336 33.6709 77.1328C33.6709 75.8027 33.8877 74.8008 34.3213 74.127C34.7607 73.4531 35.4082 73.1162 36.2637 73.1162C37.0957 73.1162 37.7432 73.4619 38.2061 74.1533C38.6748 74.8389 38.9092 75.832 38.9092 77.1328ZM36.6416 68.1504L29.5137 81H28.2217L35.3496 68.1504H36.6416Z" fill="#1B2720"/>
<path d="M6.28418 141H4.86035V131.842C4.86035 131.08 4.88379 130.359 4.93066 129.68C4.80762 129.803 4.66992 129.932 4.51758 130.066C4.36523 130.201 3.66797 130.772 2.42578 131.78L1.65234 130.778L5.05371 128.15H6.28418V141ZM13.377 138.908L13.5088 139.11C13.3564 139.696 13.1367 140.376 12.8496 141.149C12.5625 141.929 12.2637 142.652 11.9531 143.32H10.8545C11.0127 142.711 11.1855 141.958 11.373 141.062C11.5664 140.165 11.7012 139.447 11.7773 138.908H13.377ZM15.7412 135.507C15.7412 132.981 16.2305 131.095 17.209 129.847C18.1934 128.593 19.6465 127.966 21.5684 127.966C22.2305 127.966 22.752 128.021 23.1328 128.133V129.39C22.6816 129.243 22.166 129.17 21.5859 129.17C20.209 129.17 19.1572 129.601 18.4307 130.462C17.7041 131.317 17.3057 132.665 17.2354 134.505H17.3408C17.9854 133.497 19.0049 132.993 20.3994 132.993C21.5537 132.993 22.4619 133.342 23.124 134.039C23.792 134.736 24.126 135.683 24.126 136.878C24.126 138.214 23.7598 139.266 23.0273 140.033C22.3008 140.795 21.3164 141.176 20.0742 141.176C18.7441 141.176 17.6895 140.678 16.9102 139.682C16.1309 138.68 15.7412 137.288 15.7412 135.507ZM20.0566 139.937C20.8887 139.937 21.5332 139.676 21.9902 139.154C22.4531 138.627 22.6846 137.868 22.6846 136.878C22.6846 136.028 22.4707 135.36 22.043 134.874C21.6152 134.388 20.9766 134.145 20.127 134.145C19.5996 134.145 19.1162 134.253 18.6768 134.47C18.2373 134.687 17.8857 134.985 17.6221 135.366C17.3643 135.747 17.2354 136.143 17.2354 136.553C17.2354 137.156 17.3525 137.719 17.5869 138.24C17.8213 138.762 18.1523 139.175 18.5801 139.479C19.0137 139.784 19.5059 139.937 20.0566 139.937ZM27.1406 131.982C27.1406 132.979 27.249 133.726 27.4658 134.224C27.6826 134.722 28.0342 134.971 28.5205 134.971C29.4814 134.971 29.9619 133.975 29.9619 131.982C29.9619 130.002 29.4814 129.012 28.5205 129.012C28.0342 129.012 27.6826 129.258 27.4658 129.75C27.249 130.242 27.1406 130.986 27.1406 131.982ZM31.166 131.982C31.166 133.318 30.9404 134.329 30.4893 135.015C30.0439 135.694 29.3877 136.034 28.5205 136.034C27.7002 136.034 27.0615 135.686 26.6045 134.988C26.1533 134.291 25.9277 133.289 25.9277 131.982C25.9277 130.652 26.1445 129.65 26.5781 128.977C27.0176 128.303 27.665 127.966 28.5205 127.966C29.3701 127.966 30.0234 128.314 30.4805 129.012C30.9375 129.709 31.166 130.699 31.166 131.982ZM34.875 137.133C34.875 138.135 34.9834 138.885 35.2002 139.383C35.417 139.875 35.7715 140.121 36.2637 140.121C36.7559 140.121 37.1191 139.878 37.3535 139.392C37.5879 138.899 37.7051 138.146 37.7051 137.133C37.7051 136.131 37.5879 135.39 37.3535 134.909C37.1191 134.423 36.7559 134.18 36.2637 134.18C35.7715 134.18 35.417 134.423 35.2002 134.909C34.9834 135.39 34.875 136.131 34.875 137.133ZM38.9092 137.133C38.9092 138.463 38.6836 139.471 38.2324 140.156C37.7871 140.836 37.1309 141.176 36.2637 141.176C35.4316 141.176 34.79 140.827 34.3389 140.13C33.8936 139.433 33.6709 138.434 33.6709 137.133C33.6709 135.803 33.8877 134.801 34.3213 134.127C34.7607 133.453 35.4082 133.116 36.2637 133.116C37.0957 133.116 37.7432 133.462 38.2061 134.153C38.6748 134.839 38.9092 135.832 38.9092 137.133ZM36.6416 128.15L29.5137 141H28.2217L35.3496 128.15H36.6416Z" fill="#1B2720"/>
<path d="M9.39551 194.558C9.39551 196.778 9.04395 198.437 8.34082 199.532C7.64355 200.628 6.57422 201.176 5.13281 201.176C3.75 201.176 2.69824 200.616 1.97754 199.497C1.25684 198.372 0.896484 196.726 0.896484 194.558C0.896484 192.319 1.24512 190.658 1.94238 189.574C2.63965 188.49 3.70312 187.948 5.13281 187.948C6.52734 187.948 7.58496 188.514 8.30566 189.645C9.03223 190.775 9.39551 192.413 9.39551 194.558ZM2.37305 194.558C2.37305 196.427 2.59277 197.789 3.03223 198.645C3.47168 199.494 4.17188 199.919 5.13281 199.919C6.10547 199.919 6.80859 199.488 7.24219 198.627C7.68164 197.76 7.90137 196.403 7.90137 194.558C7.90137 192.712 7.68164 191.361 7.24219 190.506C6.80859 189.645 6.10547 189.214 5.13281 189.214C4.17188 189.214 3.47168 189.639 3.03223 190.488C2.59277 191.332 2.37305 192.688 2.37305 194.558ZM13.377 198.908L13.5088 199.11C13.3564 199.696 13.1367 200.376 12.8496 201.149C12.5625 201.929 12.2637 202.652 11.9531 203.32H10.8545C11.0127 202.711 11.1855 201.958 11.373 201.062C11.5664 200.165 11.7012 199.447 11.7773 198.908H13.377ZM15.7412 195.507C15.7412 192.981 16.2305 191.095 17.209 189.847C18.1934 188.593 19.6465 187.966 21.5684 187.966C22.2305 187.966 22.752 188.021 23.1328 188.133V189.39C22.6816 189.243 22.166 189.17 21.5859 189.17C20.209 189.17 19.1572 189.601 18.4307 190.462C17.7041 191.317 17.3057 192.665 17.2354 194.505H17.3408C17.9854 193.497 19.0049 192.993 20.3994 192.993C21.5537 192.993 22.4619 193.342 23.124 194.039C23.792 194.736 24.126 195.683 24.126 196.878C24.126 198.214 23.7598 199.266 23.0273 200.033C22.3008 200.795 21.3164 201.176 20.0742 201.176C18.7441 201.176 17.6895 200.678 16.9102 199.682C16.1309 198.68 15.7412 197.288 15.7412 195.507ZM20.0566 199.937C20.8887 199.937 21.5332 199.676 21.9902 199.154C22.4531 198.627 22.6846 197.868 22.6846 196.878C22.6846 196.028 22.4707 195.36 22.043 194.874C21.6152 194.388 20.9766 194.145 20.127 194.145C19.5996 194.145 19.1162 194.253 18.6768 194.47C18.2373 194.687 17.8857 194.985 17.6221 195.366C17.3643 195.747 17.2354 196.143 17.2354 196.553C17.2354 197.156 17.3525 197.719 17.5869 198.24C17.8213 198.762 18.1523 199.175 18.5801 199.479C19.0137 199.784 19.5059 199.937 20.0566 199.937ZM27.1406 191.982C27.1406 192.979 27.249 193.726 27.4658 194.224C27.6826 194.722 28.0342 194.971 28.5205 194.971C29.4814 194.971 29.9619 193.975 29.9619 191.982C29.9619 190.002 29.4814 189.012 28.5205 189.012C28.0342 189.012 27.6826 189.258 27.4658 189.75C27.249 190.242 27.1406 190.986 27.1406 191.982ZM31.166 191.982C31.166 193.318 30.9404 194.329 30.4893 195.015C30.0439 195.694 29.3877 196.034 28.5205 196.034C27.7002 196.034 27.0615 195.686 26.6045 194.988C26.1533 194.291 25.9277 193.289 25.9277 191.982C25.9277 190.652 26.1445 189.65 26.5781 188.977C27.0176 188.303 27.665 187.966 28.5205 187.966C29.3701 187.966 30.0234 188.314 30.4805 189.012C30.9375 189.709 31.166 190.699 31.166 191.982ZM34.875 197.133C34.875 198.135 34.9834 198.885 35.2002 199.383C35.417 199.875 35.7715 200.121 36.2637 200.121C36.7559 200.121 37.1191 199.878 37.3535 199.392C37.5879 198.899 37.7051 198.146 37.7051 197.133C37.7051 196.131 37.5879 195.39 37.3535 194.909C37.1191 194.423 36.7559 194.18 36.2637 194.18C35.7715 194.18 35.417 194.423 35.2002 194.909C34.9834 195.39 34.875 196.131 34.875 197.133ZM38.9092 197.133C38.9092 198.463 38.6836 199.471 38.2324 200.156C37.7871 200.836 37.1309 201.176 36.2637 201.176C35.4316 201.176 34.79 200.827 34.3389 200.13C33.8936 199.433 33.6709 198.434 33.6709 197.133C33.6709 195.803 33.8877 194.801 34.3213 194.127C34.7607 193.453 35.4082 193.116 36.2637 193.116C37.0957 193.116 37.7432 193.462 38.2061 194.153C38.6748 194.839 38.9092 195.832 38.9092 197.133ZM36.6416 188.15L29.5137 201H28.2217L35.3496 188.15H36.6416Z" fill="#1B2720"/>
<path d="M73.3252 289H64.8789V287.743L68.2627 284.342C69.2939 283.299 69.9736 282.555 70.3018 282.109C70.6299 281.664 70.876 281.23 71.04 280.809C71.2041 280.387 71.2861 279.933 71.2861 279.446C71.2861 278.761 71.0781 278.219 70.6621 277.82C70.2461 277.416 69.6689 277.214 68.9307 277.214C68.3975 277.214 67.8906 277.302 67.4102 277.478C66.9355 277.653 66.4053 277.973 65.8193 278.436L65.0459 277.442C66.2295 276.458 67.5186 275.966 68.9131 275.966C70.1201 275.966 71.0664 276.276 71.752 276.897C72.4375 277.513 72.7803 278.342 72.7803 279.385C72.7803 280.199 72.5518 281.005 72.0947 281.802C71.6377 282.599 70.7822 283.606 69.5283 284.825L66.7158 287.576V287.646H73.3252V289ZM83.6963 282.558C83.6963 284.778 83.3447 286.437 82.6416 287.532C81.9443 288.628 80.875 289.176 79.4336 289.176C78.0508 289.176 76.999 288.616 76.2783 287.497C75.5576 286.372 75.1973 284.726 75.1973 282.558C75.1973 280.319 75.5459 278.658 76.2432 277.574C76.9404 276.49 78.0039 275.948 79.4336 275.948C80.8281 275.948 81.8857 276.514 82.6064 277.645C83.333 278.775 83.6963 280.413 83.6963 282.558ZM76.6738 282.558C76.6738 284.427 76.8936 285.789 77.333 286.645C77.7725 287.494 78.4727 287.919 79.4336 287.919C80.4062 287.919 81.1094 287.488 81.543 286.627C81.9824 285.76 82.2021 284.403 82.2021 282.558C82.2021 280.712 81.9824 279.361 81.543 278.506C81.1094 277.645 80.4062 277.214 79.4336 277.214C78.4727 277.214 77.7725 277.639 77.333 278.488C76.8936 279.332 76.6738 280.688 76.6738 282.558ZM90.8857 289H89.4619V279.842C89.4619 279.08 89.4854 278.359 89.5322 277.68C89.4092 277.803 89.2715 277.932 89.1191 278.066C88.9668 278.201 88.2695 278.772 87.0273 279.78L86.2539 278.778L89.6553 276.15H90.8857V289ZM104.834 286.047H102.927V289H101.529V286.047H95.2803V284.772L101.38 276.08H102.927V284.72H104.834V286.047ZM101.529 284.72V280.448C101.529 279.61 101.559 278.664 101.617 277.609H101.547C101.266 278.172 101.002 278.638 100.756 279.007L96.7393 284.72H101.529Z" fill="#1B2720"/>
<path d="M301.075 289H292.629V287.743L296.013 284.342C297.044 283.299 297.724 282.555 298.052 282.109C298.38 281.664 298.626 281.23 298.79 280.809C298.954 280.387 299.036 279.933 299.036 279.446C299.036 278.761 298.828 278.219 298.412 277.82C297.996 277.416 297.419 277.214 296.681 277.214C296.147 277.214 295.641 277.302 295.16 277.478C294.686 277.653 294.155 277.973 293.569 278.436L292.796 277.442C293.979 276.458 295.269 275.966 296.663 275.966C297.87 275.966 298.816 276.276 299.502 276.897C300.188 277.513 300.53 278.342 300.53 279.385C300.53 280.199 300.302 281.005 299.845 281.802C299.388 282.599 298.532 283.606 297.278 284.825L294.466 287.576V287.646H301.075V289ZM311.446 282.558C311.446 284.778 311.095 286.437 310.392 287.532C309.694 288.628 308.625 289.176 307.184 289.176C305.801 289.176 304.749 288.616 304.028 287.497C303.308 286.372 302.947 284.726 302.947 282.558C302.947 280.319 303.296 278.658 303.993 277.574C304.69 276.49 305.754 275.948 307.184 275.948C308.578 275.948 309.636 276.514 310.356 277.645C311.083 278.775 311.446 280.413 311.446 282.558ZM304.424 282.558C304.424 284.427 304.644 285.789 305.083 286.645C305.522 287.494 306.223 287.919 307.184 287.919C308.156 287.919 308.859 287.488 309.293 286.627C309.732 285.76 309.952 284.403 309.952 282.558C309.952 280.712 309.732 279.361 309.293 278.506C308.859 277.645 308.156 277.214 307.184 277.214C306.223 277.214 305.522 277.639 305.083 278.488C304.644 279.332 304.424 280.688 304.424 282.558ZM318.636 289H317.212V279.842C317.212 279.08 317.235 278.359 317.282 277.68C317.159 277.803 317.021 277.932 316.869 278.066C316.717 278.201 316.02 278.772 314.777 279.78L314.004 278.778L317.405 276.15H318.636V289ZM323.681 283.507C323.681 280.981 324.17 279.095 325.148 277.847C326.133 276.593 327.586 275.966 329.508 275.966C330.17 275.966 330.691 276.021 331.072 276.133V277.39C330.621 277.243 330.105 277.17 329.525 277.17C328.148 277.17 327.097 277.601 326.37 278.462C325.644 279.317 325.245 280.665 325.175 282.505H325.28C325.925 281.497 326.944 280.993 328.339 280.993C329.493 280.993 330.401 281.342 331.063 282.039C331.731 282.736 332.065 283.683 332.065 284.878C332.065 286.214 331.699 287.266 330.967 288.033C330.24 288.795 329.256 289.176 328.014 289.176C326.684 289.176 325.629 288.678 324.85 287.682C324.07 286.68 323.681 285.288 323.681 283.507ZM327.996 287.937C328.828 287.937 329.473 287.676 329.93 287.154C330.393 286.627 330.624 285.868 330.624 284.878C330.624 284.028 330.41 283.36 329.982 282.874C329.555 282.388 328.916 282.145 328.066 282.145C327.539 282.145 327.056 282.253 326.616 282.47C326.177 282.687 325.825 282.985 325.562 283.366C325.304 283.747 325.175 284.143 325.175 284.553C325.175 285.156 325.292 285.719 325.526 286.24C325.761 286.762 326.092 287.175 326.52 287.479C326.953 287.784 327.445 287.937 327.996 287.937Z" fill="#1B2720"/>
<path d="M528.825 289H520.379V287.743L523.763 284.342C524.794 283.299 525.474 282.555 525.802 282.109C526.13 281.664 526.376 281.23 526.54 280.809C526.704 280.387 526.786 279.933 526.786 279.446C526.786 278.761 526.578 278.219 526.162 277.82C525.746 277.416 525.169 277.214 524.431 277.214C523.897 277.214 523.391 277.302 522.91 277.478C522.436 277.653 521.905 277.973 521.319 278.436L520.546 277.442C521.729 276.458 523.019 275.966 524.413 275.966C525.62 275.966 526.566 276.276 527.252 276.897C527.938 277.513 528.28 278.342 528.28 279.385C528.28 280.199 528.052 281.005 527.595 281.802C527.138 282.599 526.282 283.606 525.028 284.825L522.216 287.576V287.646H528.825V289ZM539.196 282.558C539.196 284.778 538.845 286.437 538.142 287.532C537.444 288.628 536.375 289.176 534.934 289.176C533.551 289.176 532.499 288.616 531.778 287.497C531.058 286.372 530.697 284.726 530.697 282.558C530.697 280.319 531.046 278.658 531.743 277.574C532.44 276.49 533.504 275.948 534.934 275.948C536.328 275.948 537.386 276.514 538.106 277.645C538.833 278.775 539.196 280.413 539.196 282.558ZM532.174 282.558C532.174 284.427 532.394 285.789 532.833 286.645C533.272 287.494 533.973 287.919 534.934 287.919C535.906 287.919 536.609 287.488 537.043 286.627C537.482 285.76 537.702 284.403 537.702 282.558C537.702 280.712 537.482 279.361 537.043 278.506C536.609 277.645 535.906 277.214 534.934 277.214C533.973 277.214 533.272 277.639 532.833 278.488C532.394 279.332 532.174 280.688 532.174 282.558ZM546.386 289H544.962V279.842C544.962 279.08 544.985 278.359 545.032 277.68C544.909 277.803 544.771 277.932 544.619 278.066C544.467 278.201 543.77 278.772 542.527 279.78L541.754 278.778L545.155 276.15H546.386V289ZM555.535 275.966C556.707 275.966 557.636 276.238 558.321 276.783C559.007 277.328 559.35 278.081 559.35 279.042C559.35 279.675 559.153 280.252 558.761 280.773C558.368 281.295 557.741 281.77 556.88 282.197C557.923 282.695 558.664 283.22 559.104 283.771C559.543 284.315 559.763 284.948 559.763 285.669C559.763 286.735 559.391 287.588 558.646 288.227C557.902 288.859 556.883 289.176 555.588 289.176C554.217 289.176 553.162 288.877 552.424 288.279C551.686 287.676 551.316 286.823 551.316 285.722C551.316 284.251 552.213 283.105 554.006 282.285C553.197 281.828 552.617 281.336 552.266 280.809C551.914 280.275 551.738 279.681 551.738 279.024C551.738 278.093 552.081 277.352 552.767 276.801C553.458 276.244 554.381 275.966 555.535 275.966ZM552.758 285.757C552.758 286.46 553.001 287.008 553.487 287.4C553.979 287.793 554.668 287.989 555.553 287.989C556.426 287.989 557.105 287.784 557.592 287.374C558.078 286.964 558.321 286.401 558.321 285.687C558.321 285.118 558.093 284.614 557.636 284.175C557.179 283.729 556.382 283.299 555.245 282.883C554.372 283.258 553.739 283.674 553.347 284.131C552.954 284.582 552.758 285.124 552.758 285.757ZM555.518 277.152C554.785 277.152 554.211 277.328 553.795 277.68C553.379 278.031 553.171 278.5 553.171 279.086C553.171 279.625 553.344 280.088 553.689 280.475C554.035 280.861 554.674 281.248 555.605 281.635C556.443 281.283 557.035 280.905 557.381 280.501C557.732 280.097 557.908 279.625 557.908 279.086C557.908 278.494 557.694 278.025 557.267 277.68C556.845 277.328 556.262 277.152 555.518 277.152Z" fill="#1B2720"/>
<path d="M756.575 289H748.129V287.743L751.513 284.342C752.544 283.299 753.224 282.555 753.552 282.109C753.88 281.664 754.126 281.23 754.29 280.809C754.454 280.387 754.536 279.933 754.536 279.446C754.536 278.761 754.328 278.219 753.912 277.82C753.496 277.416 752.919 277.214 752.181 277.214C751.647 277.214 751.141 277.302 750.66 277.478C750.186 277.653 749.655 277.973 749.069 278.436L748.296 277.442C749.479 276.458 750.769 275.966 752.163 275.966C753.37 275.966 754.316 276.276 755.002 276.897C755.688 277.513 756.03 278.342 756.03 279.385C756.03 280.199 755.802 281.005 755.345 281.802C754.888 282.599 754.032 283.606 752.778 284.825L749.966 287.576V287.646H756.575V289ZM766.946 282.558C766.946 284.778 766.595 286.437 765.892 287.532C765.194 288.628 764.125 289.176 762.684 289.176C761.301 289.176 760.249 288.616 759.528 287.497C758.808 286.372 758.447 284.726 758.447 282.558C758.447 280.319 758.796 278.658 759.493 277.574C760.19 276.49 761.254 275.948 762.684 275.948C764.078 275.948 765.136 276.514 765.856 277.645C766.583 278.775 766.946 280.413 766.946 282.558ZM759.924 282.558C759.924 284.427 760.144 285.789 760.583 286.645C761.022 287.494 761.723 287.919 762.684 287.919C763.656 287.919 764.359 287.488 764.793 286.627C765.232 285.76 765.452 284.403 765.452 282.558C765.452 280.712 765.232 279.361 764.793 278.506C764.359 277.645 763.656 277.214 762.684 277.214C761.723 277.214 761.022 277.639 760.583 278.488C760.144 279.332 759.924 280.688 759.924 282.558ZM777.177 289H768.73V287.743L772.114 284.342C773.146 283.299 773.825 282.555 774.153 282.109C774.481 281.664 774.728 281.23 774.892 280.809C775.056 280.387 775.138 279.933 775.138 279.446C775.138 278.761 774.93 278.219 774.514 277.82C774.098 277.416 773.521 277.214 772.782 277.214C772.249 277.214 771.742 277.302 771.262 277.478C770.787 277.653 770.257 277.973 769.671 278.436L768.897 277.442C770.081 276.458 771.37 275.966 772.765 275.966C773.972 275.966 774.918 276.276 775.604 276.897C776.289 277.513 776.632 278.342 776.632 279.385C776.632 280.199 776.403 281.005 775.946 281.802C775.489 282.599 774.634 283.606 773.38 284.825L770.567 287.576V287.646H777.177V289ZM787.548 282.558C787.548 284.778 787.196 286.437 786.493 287.532C785.796 288.628 784.727 289.176 783.285 289.176C781.902 289.176 780.851 288.616 780.13 287.497C779.409 286.372 779.049 284.726 779.049 282.558C779.049 280.319 779.397 278.658 780.095 277.574C780.792 276.49 781.855 275.948 783.285 275.948C784.68 275.948 785.737 276.514 786.458 277.645C787.185 278.775 787.548 280.413 787.548 282.558ZM780.525 282.558C780.525 284.427 780.745 285.789 781.185 286.645C781.624 287.494 782.324 287.919 783.285 287.919C784.258 287.919 784.961 287.488 785.395 286.627C785.834 285.76 786.054 284.403 786.054 282.558C786.054 280.712 785.834 279.361 785.395 278.506C784.961 277.645 784.258 277.214 783.285 277.214C782.324 277.214 781.624 277.639 781.185 278.488C780.745 279.332 780.525 280.688 780.525 282.558Z" fill="#1B2720"/>
<path d="M984.325 289H975.879V287.743L979.263 284.342C980.294 283.299 980.974 282.555 981.302 282.109C981.63 281.664 981.876 281.23 982.04 280.809C982.204 280.387 982.286 279.933 982.286 279.446C982.286 278.761 982.078 278.219 981.662 277.82C981.246 277.416 980.669 277.214 979.931 277.214C979.397 277.214 978.891 277.302 978.41 277.478C977.936 277.653 977.405 277.973 976.819 278.436L976.046 277.442C977.229 276.458 978.519 275.966 979.913 275.966C981.12 275.966 982.066 276.276 982.752 276.897C983.438 277.513 983.78 278.342 983.78 279.385C983.78 280.199 983.552 281.005 983.095 281.802C982.638 282.599 981.782 283.606 980.528 284.825L977.716 287.576V287.646H984.325V289ZM994.696 282.558C994.696 284.778 994.345 286.437 993.642 287.532C992.944 288.628 991.875 289.176 990.434 289.176C989.051 289.176 987.999 288.616 987.278 287.497C986.558 286.372 986.197 284.726 986.197 282.558C986.197 280.319 986.546 278.658 987.243 277.574C987.94 276.49 989.004 275.948 990.434 275.948C991.828 275.948 992.886 276.514 993.606 277.645C994.333 278.775 994.696 280.413 994.696 282.558ZM987.674 282.558C987.674 284.427 987.894 285.789 988.333 286.645C988.772 287.494 989.473 287.919 990.434 287.919C991.406 287.919 992.109 287.488 992.543 286.627C992.982 285.76 993.202 284.403 993.202 282.558C993.202 280.712 992.982 279.361 992.543 278.506C992.109 277.645 991.406 277.214 990.434 277.214C989.473 277.214 988.772 277.639 988.333 278.488C987.894 279.332 987.674 280.688 987.674 282.558ZM1004.93 289H996.48V287.743L999.864 284.342C1000.9 283.299 1001.58 282.555 1001.9 282.109C1002.23 281.664 1002.48 281.23 1002.64 280.809C1002.81 280.387 1002.89 279.933 1002.89 279.446C1002.89 278.761 1002.68 278.219 1002.26 277.82C1001.85 277.416 1001.27 277.214 1000.53 277.214C999.999 277.214 999.492 277.302 999.012 277.478C998.537 277.653 998.007 277.973 997.421 278.436L996.647 277.442C997.831 276.458 999.12 275.966 1000.51 275.966C1001.72 275.966 1002.67 276.276 1003.35 276.897C1004.04 277.513 1004.38 278.342 1004.38 279.385C1004.38 280.199 1004.15 281.005 1003.7 281.802C1003.24 282.599 1002.38 283.606 1001.13 284.825L998.317 287.576V287.646H1004.93V289ZM1015.23 289H1006.78V287.743L1010.17 284.342C1011.2 283.299 1011.88 282.555 1012.2 282.109C1012.53 281.664 1012.78 281.23 1012.94 280.809C1013.11 280.387 1013.19 279.933 1013.19 279.446C1013.19 278.761 1012.98 278.219 1012.56 277.82C1012.15 277.416 1011.57 277.214 1010.83 277.214C1010.3 277.214 1009.79 277.302 1009.31 277.478C1008.84 277.653 1008.31 277.973 1007.72 278.436L1006.95 277.442C1008.13 276.458 1009.42 275.966 1010.82 275.966C1012.02 275.966 1012.97 276.276 1013.65 276.897C1014.34 277.513 1014.68 278.342 1014.68 279.385C1014.68 280.199 1014.45 281.005 1014 281.802C1013.54 282.599 1012.68 283.606 1011.43 284.825L1008.62 287.576V287.646H1015.23V289Z" fill="#1B2720"/>
<path d="M64 2L114.325 55.5L327.853 70L381.941 103L465.188 130L576.656 199.5L656.141 219L1015 244" stroke="#228749" stroke-width="2"/>
</svg>
