<svg width="253" height="53" viewBox="0 0 253 53" fill="none" xmlns="http://www.w3.org/2000/svg">
<g clip-path="url(#clip0_710_383)">
<path d="M134.027 0V8.3475H118.973V0H0V27.9575H253V0H134.027Z" fill="url(#paint0_linear_710_383)"/>
<path d="M2.11273 52.735V49.555C2.50887 49.6875 2.90501 49.6875 3.30115 49.82C3.69729 49.9525 4.09342 49.9525 4.35752 49.9525C4.8857 49.9525 5.28184 49.82 5.67798 49.555C6.07411 49.29 6.3382 48.8925 6.6023 48.3625L6.99843 47.5675L0 34.45H4.62161L9.24321 43.5925L12.8085 34.45H17.166L10.5637 49.1575C9.90344 50.4825 9.24321 51.5425 8.31889 52.0725C7.52662 52.735 6.20616 53 4.48956 53C3.82933 53 3.03706 52.8675 2.11273 52.735Z" fill="black"/>
<path d="M18.8823 34.45H26.1448C27.8614 34.45 29.314 34.5825 30.3703 34.8475C31.4267 35.1125 32.219 35.51 32.6151 36.1725C33.1433 36.835 33.2753 37.63 33.2753 38.69V42.135C33.2753 43.3275 33.0112 44.255 32.4831 44.9175C31.9549 45.58 31.1626 46.11 30.1062 46.375C29.0499 46.64 27.4653 46.7725 25.6167 46.7725H23.2398V52.735H18.8823V34.45ZM26.0128 43.725C27.2012 43.725 27.9935 43.5925 28.3896 43.3275C28.9178 43.0625 29.0499 42.5325 29.0499 42.0025V39.0875C29.0499 38.425 28.7858 38.16 28.3896 37.895C27.9935 37.7625 27.0692 37.63 25.8808 37.63H23.1078V43.725H26.0128Z" fill="black"/>
<path d="M41.8584 52.8675C41.0661 52.735 40.1418 52.47 39.2174 52.205C38.1611 51.8075 37.5008 51.2775 36.8406 50.615C36.3124 49.82 36.0483 48.8925 36.0483 47.8325V39.8825C36.0483 38.955 36.3124 38.16 36.7086 37.4975C37.1047 36.835 37.6329 36.1725 38.2931 35.775C38.8213 35.3775 39.4815 35.1125 40.4059 34.8475C41.1981 34.5825 41.9904 34.45 42.6506 34.45C43.3109 34.45 43.9711 34.3175 44.7634 34.3175C45.6877 34.3175 46.3479 34.3175 47.0082 34.45C47.6684 34.45 48.3286 34.715 49.1209 34.8475C50.0452 35.1125 50.7054 35.3775 51.3657 35.775C51.8939 36.1725 52.422 36.7025 52.8182 37.365C53.2143 38.0275 53.4784 38.955 53.4784 39.8825V47.8325C53.4784 48.8925 53.2143 49.6875 52.6861 50.4825C52.1579 51.2775 51.3657 51.8075 50.4413 52.205C48.7248 52.8675 46.8761 53.265 44.7634 53.265C43.707 53 42.7827 53 41.8584 52.8675ZM46.3479 49.82C46.7441 49.82 47.1402 49.6875 47.6684 49.555C48.0645 49.4225 48.4607 49.1575 48.7248 48.8925C48.9888 48.6275 49.1209 48.23 49.1209 47.7V39.75C49.1209 38.8225 48.7248 38.2925 48.0645 37.895C47.4043 37.4975 46.3479 37.365 44.8954 37.365C43.4429 37.365 42.3865 37.4975 41.7263 37.895C41.0661 38.2925 40.6699 38.8225 40.6699 39.75V47.7C40.6699 48.23 40.802 48.495 41.0661 48.8925C41.3302 49.1575 41.7263 49.4225 42.1225 49.555C42.5186 49.6875 43.0468 49.82 43.4429 49.82C43.8391 49.82 44.3672 49.9525 45.0275 49.9525C45.4236 49.82 45.9518 49.82 46.3479 49.82Z" fill="black"/>
<path d="M56.9116 34.45H64.3062C66.0228 34.45 67.3433 34.5825 68.2676 34.8475C69.1919 35.1125 69.8521 35.51 70.2483 36.04C70.6444 36.57 70.7764 37.365 70.7764 38.425V40.6775C70.7764 41.2075 70.5124 41.605 70.1162 42.135C69.7201 42.5325 69.1919 42.93 68.6637 43.0625V43.195C69.3239 43.3275 69.9842 43.5925 70.6444 44.1225C71.1726 44.6525 71.5687 45.315 71.5687 45.845V48.6275C71.5687 50.085 71.0405 51.145 69.8521 51.8075C68.6637 52.47 66.8151 52.735 64.4382 52.735H56.9116V34.45ZM64.3062 41.87C64.9664 41.87 65.4946 41.87 65.8907 41.7375C66.2869 41.605 66.4189 41.4725 66.551 41.2075C66.683 40.9425 66.683 40.545 66.683 40.1475V39.22C66.683 38.8225 66.683 38.425 66.551 38.2925C66.4189 38.0275 66.1548 37.895 65.8907 37.895C65.4946 37.7625 64.9664 37.7625 64.3062 37.7625H61.4012V42.0025H64.3062V41.87ZM64.3062 49.555C65.3626 49.555 66.1548 49.4225 66.551 49.1575C66.9471 48.8925 67.2112 48.495 67.2112 47.965V46.5075C67.2112 45.845 67.0792 45.315 66.683 45.05C66.2869 44.785 65.7587 44.6525 64.8344 44.6525H61.1371V49.555H64.3062Z" fill="black"/>
<path d="M74.606 34.45H88.4708V37.63H78.9635V41.87H87.5465V45.05H78.9635V49.6875H88.7349V52.8675H74.606V34.45Z" fill="black"/>
<path d="M91.772 34.45H96.1295V41.7375H103.92V34.45H108.278V52.735H103.92V44.9175H96.1295V52.735H91.772V34.45Z" fill="black"/>
<path d="M112.107 34.45H116.464V41.075H118.709C120.558 41.075 121.878 41.2075 122.935 41.34C123.991 41.4725 124.783 41.87 125.444 42.4C126.104 42.93 126.368 43.725 126.368 44.9175V48.3625C126.368 51.2775 123.859 52.735 118.973 52.735H112.107V34.45ZM118.841 49.555C119.898 49.555 120.69 49.4225 121.218 49.1575C121.746 48.8925 122.01 48.3625 122.01 47.7V45.7125C122.01 45.1825 121.746 44.785 121.218 44.52C120.69 44.255 119.898 44.255 118.841 44.255H116.464V49.555H118.841Z" fill="black"/>
<path d="M135.743 48.0975V39.485C135.743 36.04 138.252 34.3175 143.402 34.3175C145.118 34.3175 146.835 34.45 148.42 34.8475V36.835C146.571 36.4375 144.986 36.1725 143.534 36.1725C142.742 36.1725 142.213 36.1725 141.685 36.305C141.157 36.4375 140.629 36.57 140.101 36.7025C139.044 37.2325 138.516 38.0275 138.516 39.485V47.965C138.516 50.085 140.233 51.145 143.666 51.145C145.118 51.145 146.835 50.88 148.552 50.4825V52.6025C146.967 53 145.25 53.1325 143.402 53.1325C138.252 53 135.743 51.41 135.743 48.0975Z" fill="black"/>
<path d="M152.117 34.45H164.265V36.305H154.758V42.4H163.341V44.255H154.758V50.7475H164.529V52.6025H151.985V34.45H152.117Z" fill="black"/>
<path d="M168.359 34.45H174.301C175.093 34.45 175.753 34.45 176.281 34.45C176.81 34.45 177.338 34.5825 177.866 34.715C178.526 34.8475 178.922 34.98 179.318 35.245C179.715 35.51 179.979 35.9075 180.243 36.305C180.507 36.7025 180.639 37.2325 180.639 37.895V41.7375C180.639 43.195 180.111 44.3875 178.922 45.05C177.734 45.7125 176.017 46.11 173.772 46.11H171V52.735H168.227V34.45H168.359ZM174.169 44.3875C175.357 44.3875 176.281 44.1225 176.942 43.725C177.602 43.3275 177.998 42.665 177.998 41.7375V38.425C177.998 37.895 177.866 37.4975 177.602 37.2325C177.338 36.9675 176.942 36.7025 176.545 36.57C176.017 36.4375 175.621 36.4375 175.357 36.305C175.093 36.305 174.565 36.305 174.037 36.305H171V44.52H174.169V44.3875Z" fill="black"/>
<path d="M184.336 34.45H190.806C192.391 34.45 193.579 34.5825 194.504 34.98C195.296 35.245 195.956 35.6425 196.22 36.04C196.484 36.4375 196.616 37.1 196.616 37.895V40.28C196.616 41.075 196.352 41.605 195.956 42.0025C195.56 42.4 194.9 42.665 194.108 42.93V43.0625C195.032 43.195 195.956 43.5925 196.484 44.1225C197.145 44.6525 197.409 45.315 197.409 46.11V49.1575C197.409 50.4825 196.881 51.41 195.956 51.94C194.9 52.47 193.315 52.735 190.938 52.735H184.204V34.45H184.336ZM190.806 42.4C191.995 42.4 192.787 42.2675 193.315 41.87C193.843 41.4725 194.108 40.9425 194.108 40.28V38.16C194.108 37.4975 193.843 36.9675 193.315 36.7025C192.787 36.4375 191.995 36.305 190.806 36.305H186.977V42.4H190.806ZM190.938 50.88C192.259 50.88 193.315 50.7475 193.843 50.4825C194.372 50.2175 194.636 49.6875 194.636 49.025V46.2425C194.636 45.7125 194.504 45.315 194.372 45.05C194.24 44.785 193.843 44.52 193.447 44.3875C193.051 44.255 192.655 44.255 192.391 44.1225C192.127 44.1225 191.599 44.1225 190.938 44.1225H186.977V50.7475H190.938V50.88Z" fill="black"/>
<path d="M201.502 34.45H204.011V49.29L214.31 34.45H216.819V52.735H214.31V37.63L204.011 52.6025H201.502V34.45Z" fill="black"/>
<path d="M221.177 48.0975V39.485C221.177 36.04 223.686 34.3175 228.835 34.3175C230.552 34.3175 232.269 34.45 233.853 34.8475V36.835C232.005 36.4375 230.42 36.1725 228.967 36.1725C228.175 36.1725 227.647 36.1725 227.119 36.305C226.591 36.4375 226.062 36.57 225.534 36.7025C224.478 37.2325 223.95 38.0275 223.95 39.485V47.965C223.95 50.085 225.666 51.145 229.1 51.145C230.552 51.145 232.269 50.88 233.985 50.4825V52.6025C232.401 53 230.684 53.1325 228.835 53.1325C223.686 53 221.177 51.41 221.177 48.0975Z" fill="black"/>
<path d="M242.833 34.45H246.002L253 52.735H250.227L248.114 47.17H240.324L238.343 52.735H235.702L242.833 34.45ZM247.454 45.315L244.285 37.1H244.021L240.984 45.315H247.454Z" fill="black"/>
<path d="M118.572 2.60003V5.64752H124.25V2.60003L118.572 2.60003Z" fill="#5BC500"/>
<path d="M134.412 5.66371V2.61621L128.734 2.61621V5.66371L134.412 5.66371Z" fill="#5BC500"/>
<path d="M127.988 5.61696V2.56946L124.951 2.56946V5.61696H127.988Z" fill="white"/>
<path d="M35.6526 15.2375H33.0117V17.8875H35.6526V15.2375Z" fill="white"/>
<path d="M35.6526 10.335H33.0117V15.37H35.6526V10.335Z" fill="#5BC500"/>
<path d="M35.6526 17.8875H33.0117V22.9225H35.6526V17.8875Z" fill="#5BC500"/>
<path d="M34.3318 9.01001C30.2384 9.01001 26.8052 12.455 26.8052 16.5625C26.8052 20.67 30.2384 24.115 34.3318 24.115C38.4252 24.115 41.8584 20.67 41.8584 16.5625C41.8584 12.455 38.5573 9.01001 34.3318 9.01001ZM31.6909 21.995C29.7102 21.0675 28.2577 18.9475 28.2577 16.5625C28.2577 14.1775 29.5781 12.0575 31.6909 11.13V21.995ZM35.5202 22.525C35.1241 22.6575 34.7279 22.6575 34.3318 22.6575C33.9357 22.6575 33.5395 22.6575 33.1434 22.525V19.2125H35.3882V22.525H35.5202ZM35.5202 17.755H33.2754V15.5025H35.5202V17.755ZM35.5202 13.9125H33.2754V10.7325C33.5395 10.6 33.9357 10.6 34.3318 10.6C34.7279 10.6 35.1241 10.6 35.5202 10.7325V13.9125ZM36.9727 21.995V11.13C38.9534 12.0575 40.4059 14.1775 40.4059 16.5625C40.4059 18.9475 38.9534 21.0675 36.9727 21.995Z" fill="black"/>
<path d="M34.3318 5.29999C28.1257 5.29999 23.1079 10.335 23.1079 16.5625C23.1079 22.79 28.1257 27.825 34.3318 27.825C40.538 27.825 45.5557 22.79 45.5557 16.5625C45.6878 10.335 40.538 5.29999 34.3318 5.29999ZM34.3318 26.3675C28.9179 26.3675 24.5604 21.995 24.5604 16.5625C24.5604 11.13 28.9179 6.75749 34.3318 6.75749C39.7457 6.75749 44.1032 11.13 44.1032 16.5625C44.1032 21.995 39.7457 26.3675 34.3318 26.3675Z" fill="black"/>
<path d="M218.621 14.6681L216.753 16.5419L218.621 18.4157L220.488 16.5419L218.621 14.6681Z" fill="white"/>
<path d="M220.445 16.5646L218.578 18.4384L222.312 22.186L224.18 20.3122L220.445 16.5646Z" fill="#5BC500"/>
<path d="M214.842 10.9991L212.975 12.8729L216.71 16.6206L218.577 14.7467L214.842 10.9991Z" fill="#5BC500"/>
<path d="M213.254 11.2625C210.349 14.1775 210.349 18.9475 213.254 21.995C216.159 24.91 220.913 24.91 223.95 21.995C226.855 19.08 226.855 14.31 223.95 11.2625C221.045 8.34748 216.291 8.34748 213.254 11.2625ZM220.516 22.26C218.404 22.9225 216.027 22.525 214.31 20.8025C212.594 19.08 212.198 16.695 212.858 14.575L220.516 22.26ZM223.554 20.0075C223.289 20.2725 223.157 20.67 222.893 20.935C222.629 21.2 222.365 21.465 221.969 21.5975L219.592 19.2125L221.177 17.6225L223.554 20.0075ZM220.252 16.5625L218.668 18.1525L217.083 16.5625L218.668 14.9725L220.252 16.5625ZM217.611 13.9125L216.027 15.5025L213.65 13.1175C213.914 12.8525 214.046 12.455 214.31 12.19C214.574 11.925 214.839 11.66 215.235 11.5275L217.611 13.9125ZM224.346 18.55L216.687 10.865C218.8 10.2025 221.177 10.6 222.893 12.3225C224.61 14.045 225.006 16.43 224.346 18.55Z" fill="black"/>
<path d="M210.613 8.6125C206.256 12.985 206.256 20.14 210.613 24.645C214.971 29.0175 222.101 29.0175 226.591 24.645C230.948 20.2725 230.948 13.1175 226.591 8.6125C222.233 4.24 215.103 4.24 210.613 8.6125ZM225.535 23.585C221.705 27.4275 215.499 27.4275 211.67 23.585C207.84 19.7425 207.84 13.515 211.67 9.67251C215.499 5.83 221.705 5.83 225.535 9.67251C229.364 13.515 229.364 19.7425 225.535 23.585Z" fill="black"/>
<path d="M7.52662 27.9575V1.45749H114.352V11.2625V12.72H115.804H136.932H138.384V1.45749H245.209V27.825H252.736V-0.132507H133.763V1.32499H118.973V-0.132507H0V27.825H7.52662V27.9575ZM129.141 3.04749H134.027V5.29999H129.141V3.04749ZM125.312 3.04749H127.556V5.29999H125.312V3.04749ZM118.973 3.04749H123.859V5.29999H118.973V3.04749ZM118.973 6.75749H134.159V8.21499H118.973V6.75749ZM115.936 1.45749H117.389V9.80499H118.181H118.973H134.159H134.951H135.743V1.45749H137.196V11.2625H116.068V1.45749H115.936Z" fill="black"/>
<path d="M68.6638 18.815C64.5704 18.815 61.1372 22.26 61.1372 26.3675H62.5897C62.5897 23.055 65.2306 20.2725 68.6638 20.2725H184.204C187.505 20.2725 190.278 22.9225 190.278 26.3675H191.731C191.731 22.26 188.297 18.815 184.204 18.815H68.6638Z" fill="black"/>
</g>
<defs>
<linearGradient id="paint0_linear_710_383" x1="126.492" y1="0" x2="126.492" y2="27.9262" gradientUnits="userSpaceOnUse">
<stop stop-color="#FEDD00"/>
<stop offset="1" stop-color="#FFD500"/>
</linearGradient>
<clipPath id="clip0_710_383">
<rect width="253" height="53" fill="white"/>
</clipPath>
</defs>
</svg>
